<?xml version="1.0" standalone="no"?>
<!DOCTYPE svg PUBLIC "-//W3C//DTD SVG 20010904//EN"
 "http://www.w3.org/TR/2001/REC-SVG-20010904/DTD/svg10.dtd">
<svg version="1.0" xmlns="http://www.w3.org/2000/svg"
 width="500.000000pt" height="500.000000pt" viewBox="0 0 500.000000 500.000000"
 preserveAspectRatio="xMidYMid meet">

<g transform="translate(0.000000,500.000000) scale(0.100000,-0.100000)"
fill="#000000" stroke="none">
<path d="M2271 4729 c-5 -14 -7 -47 -5 -75 2 -27 4 -83 5 -124 2 -66 3 -70 8
-30 l7 45 4 -53 c3 -29 1 -57 -3 -61 -5 -5 -7 -24 -4 -42 4 -34 4 -34 7 6 2
37 24 -82 45 -245 3 -24 11 -47 17 -51 18 -12 34 0 36 27 1 18 -2 23 -11 18
-7 -5 -6 -1 2 10 13 15 13 19 0 28 -11 7 -11 11 -1 15 6 2 12 12 12 21 0 10 7
26 15 36 14 19 15 18 17 -10 0 -16 1 -36 0 -44 -8 -129 -8 -135 16 -138 15 -2
22 2 22 13 0 9 -4 14 -9 11 -5 -3 -11 1 -15 9 -3 8 0 14 6 12 7 -1 15 12 19
28 l7 30 2 -35 c1 -19 2 -38 1 -42 0 -5 5 -8 12 -8 8 0 14 15 15 38 2 20 5 45
8 55 3 9 0 17 -6 17 -7 0 -10 8 -7 19 2 11 -4 33 -14 50 -10 17 -22 49 -25 71
-4 22 -13 45 -20 51 -8 6 -14 30 -14 53 -1 22 -7 59 -15 81 -8 22 -15 50 -15
62 0 12 -8 29 -17 39 -10 10 -35 44 -55 78 -36 58 -37 59 -47 35z m82 -346 c3
-27 1 -52 -4 -57 -11 -12 -16 -7 -25 28 -5 20 -4 27 4 22 8 -5 10 2 6 24 -4
17 -2 30 3 30 6 0 13 -21 16 -47z m120 -179 c-4 -10 -8 -10 -17 -1 -9 8 -10
14 -2 23 13 14 27 -2 19 -22z"/>
<path d="M1537 4503 c-18 -17 36 -163 69 -188 7 -5 27 -35 45 -65 17 -30 28
-46 24 -35 -4 11 -10 49 -12 83 -4 57 -11 72 -56 138 -50 73 -57 80 -70 67z"/>
<path d="M2802 4380 c-18 -16 -30 -30 -26 -30 3 0 -1 -12 -11 -26 -9 -14 -14
-28 -11 -32 3 -3 6 0 6 7 0 7 4 10 9 7 5 -3 11 1 15 9 8 23 21 18 23 -10 3
-38 6 -55 9 -55 2 0 12 10 24 22 18 20 20 20 20 3 0 -26 12 -11 15 20 2 14 -1
27 -6 31 -5 3 -7 10 -4 15 11 17 -18 9 -31 -8 -12 -17 -13 -16 -14 5 0 13 6
22 15 22 9 0 15 9 15 25 0 32 -8 32 -48 -5z"/>
<path d="M3410 4364 c-51 -72 -57 -77 -73 -71 -10 4 -14 13 -11 21 12 31 -8
38 -35 13 -26 -24 -84 -51 -110 -52 -17 0 -69 -71 -73 -100 -2 -12 2 -19 10
-18 14 3 16 -13 3 -21 -5 -3 -11 1 -15 9 -3 9 -12 12 -21 9 -9 -4 -14 -13 -11
-21 3 -8 1 -11 -4 -8 -6 3 -10 -1 -10 -9 0 -8 -5 -18 -11 -22 -8 -5 -10 6 -7
34 l3 41 -20 -19 c-30 -28 -38 -25 -31 13 5 25 2 35 -13 44 -17 10 -20 9 -27
-15 -4 -15 -6 -33 -5 -39 1 -7 -3 -13 -9 -13 -13 0 -13 43 0 56 16 16 -16 53
-40 47 -28 -7 -34 -21 -18 -41 12 -15 11 -16 -4 -3 -17 12 -18 9 -19 -40 0
-30 -2 -66 -3 -81 -1 -14 2 -24 6 -22 4 3 8 -4 8 -15 0 -11 6 -24 13 -28 6 -4
13 -17 14 -28 1 -19 1 -19 -12 -2 -12 16 -13 16 -18 -3 -3 -11 -1 -23 4 -26 6
-3 5 -12 -3 -22 -10 -12 -10 -14 0 -8 7 4 12 2 13 -6 1 -22 27 55 28 83 1 14
16 43 34 64 l34 39 21 -20 c17 -16 21 -31 20 -74 0 -30 -7 -67 -15 -82 -16
-34 -23 -36 -16 -5 5 22 5 22 -10 2 -15 -18 -15 -21 1 -34 16 -13 16 -13 0 -8
-12 4 -22 -1 -29 -16 -7 -12 -16 -24 -20 -27 -4 -3 -15 -19 -24 -35 l-16 -30
6 33 c5 25 3 32 -9 32 -9 0 -16 -6 -16 -14 0 -8 -4 -17 -9 -20 -5 -3 -3 15 5
41 10 33 11 50 3 57 -6 7 -10 7 -8 1 4 -17 -21 -66 -30 -61 -5 4 -7 21 -4 38
5 31 4 32 -14 17 -10 -8 -32 -15 -50 -14 -18 1 -30 -1 -28 -5 3 -4 -3 -14 -11
-21 -15 -12 -16 -10 -13 23 3 25 1 34 -7 31 -7 -2 -22 0 -33 6 -14 8 -22 8
-26 1 -5 -8 -11 -7 -21 1 -9 7 -14 8 -13 3 5 -29 -2 -37 -16 -18 -11 15 -15
16 -15 4 0 -10 -5 -7 -13 8 -16 28 -27 19 -28 -22 -1 -30 -1 -30 -9 -6 -9 29
-13 19 -10 -30 l1 -35 -16 23 c-19 26 -23 42 -24 94 -1 29 -4 36 -16 32 -8 -4
-15 -14 -15 -23 0 -14 -2 -14 -10 -1 -11 18 -21 9 -37 -33 -8 -23 -12 -26 -12
-12 -2 40 -21 -8 -21 -53 0 -25 -6 -50 -15 -58 -13 -14 -15 -13 -15 10 0 14
-4 28 -10 31 -5 3 -10 -1 -10 -9 0 -9 -4 -16 -10 -16 -5 0 -10 15 -10 33 -1
27 -2 29 -11 14 -10 -17 -12 -16 -28 5 -10 13 -21 30 -25 38 -3 8 -4 2 -2 -15
4 -27 3 -28 -9 -12 -7 10 -16 44 -20 76 -4 31 -11 64 -16 72 -8 10 -8 8 -4
-10 5 -16 4 -21 -4 -17 -7 5 -11 -2 -11 -16 0 -19 2 -20 11 -8 7 10 9 11 7 2
-6 -23 -23 -14 -26 13 -2 14 -7 25 -11 25 -18 0 -27 -25 -25 -68 l3 -47 -10
40 c-5 22 -8 48 -5 58 2 9 1 15 -3 13 -4 -3 -15 4 -24 14 -9 11 -12 22 -7 25
6 4 10 4 10 0 0 -3 9 -1 19 5 19 10 21 35 6 60 -8 13 -25 13 -25 -1 0 -5 4 -8
9 -5 5 3 11 -1 15 -9 3 -8 1 -15 -4 -15 -6 0 -10 -8 -11 -17 0 -14 -2 -13 -9
5 -5 12 -15 22 -22 21 -10 0 -10 -2 0 -6 6 -2 12 -10 12 -16 0 -6 -7 -4 -16 5
-17 17 -12 54 6 43 5 -3 10 -1 10 4 0 6 -5 11 -12 11 -6 0 -3 9 7 20 10 11 13
20 7 20 -7 0 -12 -6 -12 -12 0 -9 -4 -8 -10 2 -7 11 -10 11 -10 2 0 -7 -5 -10
-11 -6 -8 4 -7 9 2 15 7 4 17 5 21 3 4 -3 8 0 8 7 0 6 8 9 20 6 11 -3 20 0 20
6 1 7 10 1 20 -12 l20 -23 -1 33 c0 28 -2 31 -9 14 -6 -15 -9 -16 -9 -4 -1 16
-31 23 -31 7 0 -4 -5 -8 -11 -8 -6 0 -7 5 -2 13 8 12 9 17 12 37 0 5 8 7 17 3
13 -5 13 -7 2 -14 -10 -7 -10 -9 0 -9 16 0 29 33 14 38 -14 4 -4 32 12 32 7 0
13 6 13 13 0 6 2 17 3 22 1 6 2 21 1 34 -1 21 -3 22 -18 10 -10 -8 -14 -9 -10
-2 5 8 0 11 -13 10 -16 -1 -20 -7 -18 -33 1 -19 -5 -38 -16 -50 -18 -17 -18
-17 -12 6 7 23 6 24 -7 7 -8 -10 -20 -16 -27 -15 -7 2 -15 -3 -17 -9 -3 -8 3
-13 15 -13 11 0 22 -9 25 -20 6 -25 -18 -27 -33 -2 -8 14 -10 9 -9 -23 2 -66
1 -71 -13 -57 -15 15 -31 16 -22 0 5 -7 2 -9 -8 -6 -25 10 -41 -7 -32 -33 4
-13 7 -28 5 -34 -1 -5 0 -7 4 -3 12 12 37 -22 32 -42 -3 -11 -1 -18 4 -14 5 3
9 0 9 -6 0 -6 4 -9 8 -6 4 2 8 -3 9 -12 3 -39 7 -61 13 -60 24 2 30 -4 24 -26
-3 -14 0 -29 10 -38 15 -16 19 -61 4 -52 -5 3 -5 10 -2 16 4 6 2 8 -4 4 -6 -3
-12 -1 -15 6 -2 7 -2 3 -1 -9 2 -12 -1 -25 -6 -28 -6 -4 -7 -11 -4 -17 4 -7 2
-8 -5 -4 -9 6 -9 11 0 22 10 12 9 13 -4 8 -17 -6 -41 28 -29 41 4 5 1 5 -5 1
-7 -4 -13 -2 -13 4 0 6 -4 8 -10 5 -5 -3 -10 1 -10 9 0 9 -5 16 -10 16 -6 0
-8 -12 -4 -27 4 -22 3 -24 -5 -13 -8 11 -10 2 -8 -35 1 -27 7 -54 12 -58 6 -5
0 -7 -12 -4 -20 5 -22 3 -11 -16 10 -20 10 -21 -6 -8 -25 21 -29 8 -11 -35 32
-76 27 -92 -10 -34 -19 30 -35 58 -35 63 0 5 -7 7 -14 4 -11 -4 -13 -1 -10 11
3 9 -1 6 -9 -7 -12 -20 -15 -21 -20 -7 -5 12 -17 16 -52 14 -25 -2 -45 -7 -45
-11 0 -5 -4 -5 -10 -2 -10 6 -3 -21 10 -40 4 -5 10 -19 14 -29 5 -16 4 -17 -9
-6 -11 9 -15 9 -15 1 0 -7 -5 -9 -11 -5 -8 5 -8 1 0 -14 7 -14 8 -23 1 -27
-10 -6 -14 1 -11 18 1 5 -3 6 -8 3 -5 -3 -20 6 -35 21 -35 35 -33 15 4 -32 37
-46 40 -69 4 -26 -28 34 -68 46 -43 14 11 -15 11 -16 -1 -5 -20 17 -33 15 -48
-8 -13 -22 -5 -49 25 -78 14 -14 9 -32 -9 -32 -5 0 -7 7 -4 16 3 8 2 12 -3 9
-5 -3 -12 -1 -16 5 -3 5 -11 10 -16 10 -6 0 -7 -4 -4 -10 10 -16 -1 -11 -16 7
-10 11 -10 14 -1 9 20 -12 13 8 -13 36 -15 16 -31 25 -40 21 -12 -4 -13 -9 -4
-19 13 -16 3 -35 -19 -33 -40 4 -43 -1 -19 -36 13 -19 35 -44 50 -55 15 -12
25 -25 22 -29 -2 -5 4 -16 15 -26 32 -29 23 -38 -12 -13 -18 13 -52 33 -77 45
-60 29 -73 12 -28 -37 18 -19 22 -26 10 -16 -12 10 -27 15 -33 11 -8 -5 6 -25
41 -58 30 -27 47 -44 37 -38 -10 8 -18 8 -22 2 -4 -5 2 -14 11 -20 10 -6 14
-11 9 -11 -5 0 -36 19 -70 41 -61 42 -61 38 2 -33 26 -28 15 -32 -28 -8 -22
12 -24 12 -12 -2 10 -13 10 -18 1 -24 -8 -5 -9 -3 -4 6 6 10 4 12 -9 7 -9 -4
-15 -3 -12 1 2 4 -6 7 -17 8 -12 0 -29 4 -39 8 -13 6 -22 -5 -43 -53 -15 -34
-32 -61 -37 -61 -5 0 -6 -4 -3 -10 3 -6 -5 -10 -18 -10 -14 0 -40 -7 -58 -16
-22 -9 -26 -13 -11 -10 23 4 23 4 7 -14 -10 -11 -22 -17 -28 -13 -5 3 -7 2 -4
-4 3 -5 0 -21 -8 -36 -15 -28 -9 -71 8 -60 6 4 8 0 4 -10 -4 -10 -2 -16 6 -14
7 1 12 -5 12 -13 0 -8 -4 -15 -10 -16 -5 0 -17 -3 -25 -7 -8 -3 -22 -8 -30
-11 -8 -4 -1 -4 17 -2 28 5 31 3 28 -19 -4 -42 -69 -175 -85 -175 -8 0 -57 11
-107 25 -81 21 -313 70 -425 90 -21 3 -38 3 -38 -1 0 -12 54 -54 69 -54 8 0
31 -5 50 -11 20 -7 42 -13 50 -16 10 -2 11 -6 2 -17 -10 -12 -8 -13 8 -9 17 4
24 -3 40 -38 24 -54 54 -89 75 -89 38 0 31 -64 -9 -74 -14 -4 -31 -18 -37 -31
-6 -14 -19 -25 -30 -25 -12 0 -18 -7 -18 -24 0 -13 -7 -29 -15 -36 -8 -7 -12
-16 -10 -21 3 -4 -3 -12 -13 -18 -39 -21 -82 -66 -82 -87 0 -12 -7 -27 -16
-35 -14 -12 -14 -14 2 -26 10 -7 30 -13 45 -13 15 0 31 -4 34 -10 9 -15 25
-12 25 4 0 8 5 18 11 22 8 5 10 -1 7 -20 -4 -21 -3 -24 8 -15 7 6 10 17 7 25
-4 10 0 13 13 8 14 -4 16 -3 5 4 -11 8 -11 10 0 15 8 3 3 5 -11 4 -14 -1 -30
-9 -37 -17 -18 -23 -25 -7 -7 18 8 12 20 19 26 16 6 -4 8 -2 4 4 -3 6 -2 13 4
17 5 3 15 15 21 27 10 18 8 19 -13 13 -21 -6 -20 -4 7 19 17 13 41 28 55 31
78 20 140 66 79 59 -18 -2 -28 0 -24 6 3 6 18 10 33 10 26 1 26 1 8 15 -19 15
-19 15 3 15 14 0 20 4 15 12 -5 8 -1 9 12 5 18 -7 18 -6 1 7 -12 9 -14 16 -8
21 18 10 12 28 -6 21 -15 -5 -15 -4 1 9 22 17 56 20 56 5 0 -5 -6 -7 -13 -4
-8 3 -14 -1 -14 -9 0 -8 10 -12 26 -11 41 2 43 3 36 17 -4 6 1 3 9 -7 9 -11
16 -23 16 -27 0 -7 -86 -203 -113 -259 -15 -30 -43 -60 -51 -53 -3 3 -13 2
-23 -2 -10 -5 -27 -7 -38 -6 -16 3 -14 -2 12 -25 31 -29 32 -30 18 -68 -8 -22
-11 -44 -8 -48 5 -10 -16 -68 -26 -69 -3 0 -14 -2 -24 -4 -10 -2 -21 3 -24 11
-3 8 -10 11 -15 8 -6 -4 -6 -9 2 -14 7 -4 9 -13 5 -20 -6 -9 -10 -9 -17 1 -7
10 -8 4 -4 -19 6 -37 -13 -63 -72 -94 -20 -11 -32 -25 -32 -38 0 -13 -13 -28
-35 -41 -41 -24 -42 -27 -15 -37 19 -7 19 -9 -11 -45 -17 -20 -36 -37 -44 -37
-20 0 -36 -25 -24 -37 8 -8 8 -17 0 -32 -10 -17 -9 -21 3 -21 29 0 125 48 147
73 23 28 210 105 319 132 35 8 71 21 80 28 26 22 214 80 218 68 2 -6 9 -8 15
-5 8 5 9 4 2 -3 -5 -6 -34 -18 -63 -28 l-52 -17 22 -23 c18 -19 26 -21 42 -13
20 11 20 11 3 -13 -45 -61 -61 -113 -62 -193 0 -51 -4 -81 -12 -83 -7 -3 -10
4 -7 19 2 13 2 17 -2 10 -3 -6 -10 -10 -15 -6 -5 3 -12 -2 -15 -10 -3 -9 -10
-14 -14 -11 -4 2 -16 -5 -26 -17 -11 -12 -13 -18 -5 -13 10 6 12 4 7 -4 -6 -9
-14 -8 -34 5 -24 16 -26 16 -13 1 11 -13 11 -17 1 -17 -8 0 -10 -3 -7 -7 4 -3
2 -12 -4 -19 -15 -18 -4 -43 17 -40 9 1 22 10 29 19 13 18 35 23 35 9 0 -4 -5
-13 -11 -19 -6 -6 -11 -17 -13 -24 -1 -8 -10 -31 -20 -51 -10 -21 -16 -44 -13
-52 3 -8 2 -16 -2 -18 -4 -2 -11 -16 -15 -33 -5 -22 -4 -26 4 -15 15 22 12 6
-4 -26 -8 -15 -13 -31 -10 -36 13 -21 12 -56 -2 -105 -9 -29 -14 -59 -11 -66
2 -6 -3 -18 -12 -25 -12 -10 -13 -15 -3 -18 6 -3 12 -14 12 -24 0 -10 3 -21 8
-23 4 -3 6 9 6 26 -1 18 5 42 13 55 8 13 12 30 9 38 -3 8 -1 14 5 14 5 0 15
11 21 25 6 14 16 25 21 25 5 0 4 -8 -3 -17 -7 -10 3 -1 22 21 38 42 30 41 127
10 11 -3 7 -12 -14 -34 -16 -16 -30 -28 -33 -25 -4 4 -17 -5 -53 -38 -10 -9
-23 -17 -28 -17 -5 0 -21 -14 -36 -32 -32 -38 -18 -53 30 -32 18 7 44 15 57
18 29 5 152 85 144 94 -9 9 44 44 62 40 13 -3 17 -13 17 -43 0 -22 4 -46 9
-54 6 -9 5 -12 -1 -8 -6 4 -18 -2 -28 -13 -16 -18 -16 -19 6 -18 13 1 30 6 37
11 16 12 16 -5 0 -21 -9 -9 -8 -12 5 -12 9 0 17 4 17 8 0 4 9 8 19 9 13 1 18
-3 15 -12 -3 -7 -1 -16 5 -20 6 -3 11 -2 11 3 0 5 8 12 18 16 9 3 24 9 32 12
13 5 13 4 0 -5 -12 -9 -5 -15 13 -10 1 0 14 -4 29 -10 21 -8 27 -7 32 6 5 12
9 13 21 3 21 -17 57 -18 73 -3 8 7 18 10 24 7 6 -4 5 -10 -3 -15 -11 -7 -10
-9 5 -9 14 0 16 -3 7 -14 -8 -10 -9 -21 0 -42 l11 -29 23 28 c22 25 54 39 40
17 -3 -5 -1 -19 6 -31 8 -17 8 -23 -1 -29 -8 -5 -10 -18 -6 -36 9 -38 9 -43
-3 -89 -11 -43 -13 -152 -2 -199 14 -66 42 -34 87 98 28 81 28 79 12 70 -7 -5
-9 -2 -5 9 3 9 11 34 17 55 13 49 109 275 120 282 4 3 17 24 29 47 21 41 51
73 38 40 -12 -31 -31 -102 -29 -109 1 -5 -2 -8 -8 -8 -5 0 -7 -7 -4 -15 4 -8
-1 -17 -10 -21 -9 -3 -16 -10 -16 -16 0 -5 6 -6 13 -2 6 4 3 -2 -7 -15 -11
-12 -28 -38 -38 -59 -11 -23 -15 -27 -12 -12 4 14 4 23 1 20 -7 -7 -67 -150
-63 -150 2 0 16 20 30 45 27 45 46 58 46 31 0 -8 15 -17 35 -20 46 -9 61 1 40
24 -9 10 -14 24 -10 29 10 17 43 13 54 -6 6 -10 11 -13 11 -7 0 19 26 23 54 9
14 -8 26 -11 26 -8 0 3 9 -4 19 -16 19 -21 19 -21 15 45 -2 36 -7 70 -10 75
-3 5 -1 9 4 9 5 0 14 24 19 53 7 33 11 42 12 25 1 -34 18 -36 31 -5 8 21 9 21
11 2 1 -11 2 -26 2 -33 -1 -10 2 -10 13 -1 16 13 18 7 15 -54 -2 -30 1 -37 11
-31 11 6 11 5 0 -8 -7 -9 -12 -38 -11 -69 1 -30 -1 -64 -5 -75 -4 -14 -1 -26
9 -34 13 -11 15 -9 16 11 1 13 1 26 1 29 0 3 7 6 17 7 13 1 17 -7 18 -38 1
-46 8 -58 25 -41 7 7 21 12 31 12 16 0 17 -2 7 -15 -16 -20 -7 -29 19 -20 12
3 21 14 21 23 0 13 -2 14 -8 4 -16 -25 -40 39 -41 111 -1 20 -6 37 -12 37 -5
0 -8 -4 -4 -9 3 -5 1 -12 -3 -15 -5 -3 -7 -18 -5 -33 l4 -28 -15 25 c-8 14
-10 26 -5 28 6 3 5 10 -2 18 -6 8 -16 11 -23 7 -6 -3 -8 -3 -4 2 4 4 3 16 -3
26 -6 13 -6 19 1 19 5 0 10 -7 10 -16 0 -9 5 -12 12 -8 6 4 8 3 4 -4 -3 -6 -2
-13 3 -17 17 -10 2 39 -16 52 -9 7 -13 13 -7 13 5 0 4 4 -3 8 -11 7 -16 26
-14 50 0 7 5 11 10 7 5 -3 13 5 16 17 4 13 15 32 25 43 10 11 20 27 23 35 5
14 7 5 11 -47 0 -10 10 -26 21 -35 19 -15 21 -15 32 5 7 12 12 32 13 45 0 12
5 22 10 22 6 0 10 -11 10 -24 0 -20 4 -23 21 -19 12 4 25 0 30 -8 7 -11 9 -11
9 -1 0 7 5 10 10 7 6 -4 8 -10 5 -15 -3 -4 1 -23 9 -40 l13 -33 5 31 c3 19 1
29 -6 25 -6 -4 -6 1 -1 13 4 10 10 34 13 53 3 23 7 29 13 20 4 -8 6 -25 4 -39
-3 -14 -2 -19 1 -12 3 6 10 12 15 12 6 0 7 -4 4 -10 -3 -5 -2 -10 4 -10 5 0 9
-14 9 -30 -1 -19 -6 -30 -15 -30 -8 0 -11 5 -7 12 4 7 3 8 -4 4 -7 -4 -12 -17
-12 -29 0 -12 4 -17 8 -12 15 21 32 15 31 -13 0 -24 -1 -25 -9 -7 l-9 20 0
-20 c-1 -17 -3 -17 -11 -5 -8 12 -10 9 -10 -13 0 -16 4 -26 9 -23 5 3 11 -1
14 -9 4 -10 1 -12 -10 -8 -12 5 -15 2 -10 -10 3 -9 2 -19 -3 -22 -6 -4 -10 1
-10 10 0 11 -5 15 -14 12 -8 -3 -17 -1 -20 6 -3 7 -3 1 0 -13 5 -24 4 -24 -10
-6 -14 17 -15 15 -12 -30 1 -27 6 -48 9 -46 4 1 6 3 5 5 -1 1 4 12 11 25 12
22 14 23 31 7 10 -9 22 -30 25 -46 4 -16 13 -32 20 -36 8 -5 13 -12 13 -18 0
-12 74 -55 85 -48 11 6 4 -21 -7 -29 -12 -8 12 -40 24 -33 5 3 6 14 3 24 -4
16 0 20 18 18 22 -1 62 -31 57 -41 -2 -2 0 -7 3 -11 4 -3 6 37 5 89 0 53 -4
96 -8 96 -4 0 -7 10 -6 23 0 12 -5 42 -12 67 -7 25 -14 52 -15 60 -1 8 -5 31
-8 50 -21 113 -27 174 -17 190 5 7 10 1 14 -17 7 -27 8 -27 22 -9 13 19 14 19
14 -7 0 -15 4 -27 9 -27 5 0 7 -10 3 -22 -3 -14 -2 -19 6 -14 8 5 12 0 12 -13
0 -11 4 -22 10 -26 5 -3 7 -12 4 -19 -7 -18 12 -30 22 -15 5 8 3 9 -6 4 -10
-6 -12 -4 -7 10 4 9 3 23 -3 30 -7 9 -7 15 -1 19 11 7 18 -12 26 -69 3 -22 13
-73 21 -113 13 -63 18 -72 34 -67 10 3 21 1 25 -5 4 -6 3 -10 -2 -9 -21 4 -22
-4 -8 -38 9 -21 16 -39 16 -40 -5 -23 1 -53 10 -47 6 3 8 15 6 26 -5 16 -3 17
10 6 14 -11 15 -10 9 9 -4 13 -2 24 5 29 7 4 9 3 6 -3 -4 -6 0 -26 8 -45 7
-19 11 -45 8 -58 -6 -21 -5 -22 9 -9 9 7 14 16 13 19 -2 3 0 12 5 20 6 9 3 18
-7 26 -9 6 -18 22 -20 34 -2 13 -9 30 -16 39 -9 12 -9 13 1 7 7 -4 15 -1 19
10 6 16 7 16 19 -1 13 -18 34 -13 34 8 0 7 -4 6 -10 -3 -7 -11 -10 -12 -10 -2
0 7 6 20 14 27 12 12 15 11 21 -8 4 -12 7 -25 7 -28 -1 -3 5 -6 13 -6 12 0 11
5 -1 29 -8 15 -11 28 -7 28 5 0 2 4 -6 9 -9 6 -10 11 -2 15 6 4 11 2 11 -3 0
-6 7 -11 15 -11 8 0 15 7 15 15 0 8 6 15 14 15 8 0 18 5 22 11 4 8 0 9 -15 4
-12 -4 -21 -2 -21 4 0 6 6 11 14 11 8 0 22 3 31 6 11 5 16 2 15 -7 -5 -33 0
-48 15 -43 11 5 12 9 2 25 -10 16 -9 21 2 28 8 5 19 8 25 7 6 -2 8 -1 3 1 -4
3 -5 8 -2 12 2 5 -7 19 -20 31 -26 24 -34 47 -12 34 8 -5 8 -3 -2 9 -7 9 -18
14 -23 11 -5 -3 -9 0 -7 7 3 29 -1 50 -10 44 -5 -3 -13 0 -17 6 -4 8 -3 9 4 5
15 -9 15 9 1 36 -9 16 -8 19 2 13 9 -6 11 -3 6 8 -8 20 13 23 32 4 11 -9 12
-9 7 0 -5 9 -2 11 8 7 9 -3 16 -12 16 -20 0 -8 5 -14 11 -14 5 0 8 -4 5 -9 -3
-5 5 -29 18 -55 13 -25 17 -41 10 -35 -17 14 -18 5 -3 -23 9 -17 13 -18 21 -7
8 11 9 11 5 -1 -3 -9 1 -24 9 -35 8 -10 14 -26 14 -34 -1 -9 -9 0 -20 19 -11
19 -19 31 -20 25 0 -5 -10 1 -21 15 l-20 25 12 -25 c7 -14 12 -29 11 -34 -2
-5 4 -6 12 -3 11 4 17 -6 25 -41 5 -25 8 -49 5 -53 -5 -9 31 -40 44 -37 6 2
18 -6 26 -17 9 -11 16 -14 16 -7 0 25 18 10 89 -78 40 -50 79 -90 86 -90 29 0
25 24 -16 93 -24 39 -58 103 -77 140 -19 38 -36 66 -38 64 -6 -6 24 -75 36
-82 5 -3 10 -11 10 -16 0 -19 -49 48 -110 150 -51 86 -77 136 -151 286 -14 27
36 -31 69 -80 29 -45 61 -102 104 -187 16 -32 31 -58 34 -58 3 0 2 5 -1 10 -4
6 -1 17 5 25 7 8 9 15 4 15 -5 0 -17 12 -27 25 -20 28 -14 53 9 34 10 -9 14
-9 14 0 0 23 31 23 56 1 29 -28 31 -17 4 27 -20 33 -12 55 10 28 17 -21 90
-78 90 -71 0 3 -21 31 -46 61 -25 31 -44 58 -42 60 2 2 18 -3 36 -12 39 -19
82 -5 102 32 14 26 15 25 72 -28 17 -15 35 -26 42 -23 7 3 7 5 -1 5 -7 1 -13
8 -13 16 0 8 -4 14 -9 12 -5 -1 -8 3 -8 8 1 6 8 9 15 9 19 -3 16 0 -45 46 -47
35 -60 40 -75 31 -12 -8 -19 -8 -24 1 -4 6 -3 8 4 4 6 -3 14 -1 17 5 8 11 -25
40 -37 33 -5 -3 -8 0 -8 7 0 7 -9 23 -21 35 -15 16 -17 24 -8 29 8 6 10 4 4
-5 -5 -9 -4 -11 3 -6 7 4 12 13 12 21 0 10 7 11 35 2 30 -9 39 -8 52 6 16 16
14 20 -31 63 -27 25 -38 40 -26 33 12 -8 41 -24 64 -35 36 -19 42 -20 47 -6 4
11 8 12 13 4 4 -7 12 -12 19 -12 6 0 1 7 -11 16 -12 8 -20 19 -17 24 3 5 -3
14 -12 20 -17 11 -17 11 0 6 9 -3 17 -1 17 3 0 5 10 7 23 4 12 -3 19 -2 15 2
-4 5 -2 15 5 23 9 13 9 14 0 8 -8 -4 -13 -2 -13 4 0 6 -3 9 -7 7 -5 -3 -16 6
-26 19 -10 13 -13 24 -7 24 5 0 9 5 8 11 -2 6 7 15 20 20 17 6 21 6 16 -3 -5
-7 0 -9 14 -6 15 4 25 0 32 -10 16 -28 11 -7 -7 29 -9 19 -24 40 -32 47 -14
11 -13 12 8 6 13 -3 30 -7 37 -8 7 -1 17 -5 20 -9 11 -11 26 -8 19 4 -4 6 0 9
10 7 24 -4 31 19 8 26 -10 2 -1 3 21 1 28 -2 35 0 27 8 -18 18 -14 59 7 56 24
-3 88 27 71 34 -11 4 -10 8 6 21 11 8 15 16 8 16 -7 0 -13 3 -13 8 0 4 17 6
37 6 53 -2 57 3 31 44 -17 29 -18 34 -4 23 14 -12 17 -12 14 -1 -2 8 2 14 9
15 6 0 15 4 20 8 4 5 3 7 -3 5 -7 -1 -23 9 -37 25 -27 28 -24 36 5 13 10 -7
16 -16 13 -20 -3 -3 0 -2 6 3 6 5 19 7 28 4 15 -4 15 -3 0 9 -9 7 -18 18 -20
23 -5 14 -49 36 -60 29 -5 -3 -9 -1 -9 5 0 5 -8 12 -17 15 -10 2 -1 2 19 -1
56 -8 66 7 19 28 -23 10 -41 21 -41 24 0 3 5 3 12 -1 7 -4 8 -3 4 4 -4 6 3 43
15 82 l21 71 37 -6 c106 -18 211 -41 338 -76 142 -39 233 -57 233 -46 0 3 -5
18 -12 32 -7 16 -14 21 -18 14 -5 -6 -17 -8 -29 -4 -12 3 -19 10 -16 15 2 4
-15 13 -40 19 -25 6 -44 17 -42 23 1 7 -5 13 -13 13 -30 2 -48 17 -53 44 -4
16 -20 44 -37 62 -35 39 -40 81 -10 102 11 8 17 17 13 20 -3 4 3 7 15 7 25 0
28 10 10 29 -10 10 -10 12 -1 7 15 -8 54 29 42 41 -11 11 3 34 23 36 33 5 71
44 75 77 4 37 33 66 45 47 6 -9 11 -8 18 3 6 10 6 16 -3 18 -7 2 -22 8 -34 14
-13 6 -26 8 -30 5 -3 -4 2 -7 13 -7 19 -1 19 -1 0 -12 -15 -8 -21 -8 -24 0 -2
7 -8 12 -14 12 -6 0 -6 -6 2 -15 7 -8 9 -15 5 -15 -4 0 -1 -8 6 -17 11 -13 11
-15 1 -9 -19 11 -64 -2 -56 -16 5 -7 2 -9 -8 -5 -9 3 -21 0 -27 -6 -9 -9 -11
-8 -6 5 6 15 1 14 -34 -5 -43 -23 -56 -43 -21 -32 11 3 32 8 47 11 15 3 31 7
37 10 6 3 2 -2 -9 -10 -17 -14 -70 -34 -113 -42 -19 -3 -27 -13 -19 -21 4 -3
23 -2 42 4 20 6 35 7 35 2 0 -5 -7 -9 -15 -9 -8 0 -15 -5 -15 -11 0 -6 -7 -8
-16 -5 -8 3 -13 2 -10 -3 6 -8 -42 -26 -50 -18 -7 7 -137 284 -184 392 -26 61
-63 144 -83 185 -107 228 -140 310 -126 310 5 0 9 4 9 10 0 5 -6 7 -14 4 -19
-7 -63 96 -45 107 7 4 17 5 21 3 5 -3 15 2 24 10 9 9 20 13 26 10 6 -4 8 -3 5
3 -3 5 0 10 7 10 20 0 12 -29 -9 -37 -17 -6 -17 -7 4 -13 19 -5 21 -8 11 -26
-6 -12 -7 -21 -3 -21 4 0 1 -5 -7 -11 -10 -7 -11 -9 -2 -7 8 2 13 7 12 12 -3
15 23 24 36 13 10 -10 9 -16 -4 -32 -13 -15 -13 -17 -2 -8 12 9 23 8 49 -4 31
-16 34 -16 46 0 7 9 17 17 22 17 6 0 16 6 22 14 7 8 21 13 31 11 10 -2 31 0
47 4 29 9 27 10 -23 26 -12 4 -14 16 -11 54 2 27 8 54 12 61 6 9 4 11 -6 6 -8
-5 -8 -2 2 6 9 7 14 19 12 26 -3 6 0 12 6 12 6 0 8 7 5 15 -4 8 -1 15 6 15 6
0 9 4 6 9 -3 5 1 14 9 21 8 7 15 20 15 29 0 9 9 29 20 46 28 43 35 106 16 141
-11 21 -15 24 -16 11 0 -16 -2 -17 -20 -4 -40 28 -172 -2 -209 -47 -8 -9 -19
-16 -26 -16 -7 0 -28 -13 -46 -30 -39 -34 -42 -35 -59 -15 -10 13 -10 23 3 56
14 35 14 40 2 35 -9 -3 -15 1 -15 9 0 8 6 15 14 15 8 0 17 7 20 16 9 23 8 24
-15 24 -15 0 -19 -4 -15 -16 5 -14 4 -15 -9 -4 -9 8 -13 21 -9 32 5 17 2 19
-14 14 -15 -5 -24 -1 -31 13 -7 12 -18 17 -29 14 -12 -3 -22 2 -25 11 -4 9
-14 16 -22 16 -10 0 -13 -5 -9 -12 5 -8 0 -9 -15 -5 -19 5 -20 3 -10 -10 11
-13 9 -14 -17 -10 -16 3 -33 6 -39 7 -21 5 -27 -1 -15 -15 11 -13 10 -14 -11
-7 -13 5 -24 13 -24 18 0 5 -3 14 -6 19 -3 6 -5 26 -4 46 0 27 -3 35 -13 31
-9 -3 -11 -13 -7 -29 4 -16 2 -22 -5 -18 -10 6 -14 -25 -10 -75 3 -35 9 -38
27 -15 15 20 15 20 8 -2 -5 -18 -3 -22 9 -17 9 3 13 10 10 15 -3 5 2 6 10 3 9
-3 16 -11 16 -17 0 -12 14 0 16 14 1 5 2 14 3 19 0 6 6 10 11 10 6 0 9 -3 8
-7 -4 -11 25 -48 38 -50 10 -2 25 29 28 59 1 3 5 10 10 15 5 5 7 -1 3 -15 -3
-12 -1 -20 3 -17 5 3 12 0 16 -7 4 -7 4 -10 -1 -6 -13 12 -33 -24 -26 -49 6
-23 25 -32 27 -13 4 31 7 33 14 10 5 -17 8 -19 9 -7 1 9 8 17 17 17 14 0 15
-2 3 -17 -13 -17 -12 -17 6 -2 27 22 49 14 32 -12 -9 -14 -9 -23 0 -38 9 -14
8 -24 -2 -44 -14 -28 -11 -37 16 -37 12 0 16 -5 12 -15 -3 -9 -8 -14 -11 -11
-4 5 -42 -57 -42 -69 0 -16 35 1 94 45 37 27 77 52 89 56 12 3 37 17 55 31 17
13 37 21 44 17 6 -4 8 -3 5 3 -6 10 10 18 51 28 7 2 25 11 40 21 40 27 48 25
44 -11 -3 -22 -19 -49 -50 -82 -26 -27 -41 -41 -33 -31 8 10 10 18 4 18 -16 0
-44 -36 -36 -45 5 -5 -1 -3 -11 5 -11 8 -17 10 -13 3 4 -7 -15 -30 -48 -58
-30 -26 -53 -51 -50 -55 3 -4 -3 -14 -12 -21 -14 -12 -16 -12 -9 1 5 8 -3 3
-16 -12 -14 -15 -28 -25 -31 -22 -3 3 -13 -6 -23 -20 -9 -15 -19 -24 -22 -22
-2 3 -16 -4 -31 -15 l-26 -21 -30 66 c-16 36 -33 65 -37 66 -4 0 -10 -9 -13
-21 -7 -19 -7 -20 -21 -2 -11 15 -13 15 -14 3 0 -9 5 -21 10 -26 20 -20 -10
-71 -63 -111 -113 -84 -126 -90 -67 -30 30 31 55 61 55 66 0 6 9 17 20 25 11
9 16 16 11 16 -6 0 -2 6 9 13 12 10 14 16 7 21 -7 4 -12 2 -12 -3 0 -6 -4 -11
-9 -11 -5 0 -7 8 -4 19 3 10 0 22 -6 25 -7 5 -8 1 -5 -9 5 -13 2 -15 -20 -9
-19 4 -27 2 -32 -10 -3 -9 -10 -13 -15 -10 -5 3 -9 0 -9 -5 0 -6 -5 -11 -12
-11 -6 0 -3 9 7 20 26 29 3 25 -24 -4 -15 -16 -20 -29 -15 -38 6 -10 5 -11 -7
-1 -13 10 -21 7 -49 -22 -39 -40 -56 -46 -39 -13 l12 22 -28 -18 c-31 -20 -32
-23 25 53 14 18 25 36 25 39 0 4 9 20 19 35 10 15 17 30 14 32 -8 9 -48 -27
-42 -37 5 -7 2 -8 -5 -3 -9 5 -10 10 -2 18 15 15 14 30 -1 21 -7 -4 -2 6 10
23 22 31 19 51 -5 31 -11 -8 -12 -7 -7 6 7 18 -11 22 -21 6 -5 -8 -11 -7 -20
0 -8 7 -19 9 -24 5 -7 -4 -8 1 -4 11 5 15 2 16 -28 11 -19 -3 -28 -3 -21 0 12
5 17 33 5 33 -3 0 -15 -7 -25 -17 -10 -9 -18 -11 -18 -5 0 6 5 14 10 17 6 4 7
11 4 17 -4 7 -2 8 4 4 11 -6 16 5 13 26 -1 7 30 19 40 15 3 -1 13 4 21 10 8 7
24 11 35 9 16 -4 20 0 16 15 -3 10 -14 19 -25 19 -10 0 -17 -3 -15 -7 3 -5 -1
-13 -8 -20 -10 -9 -17 -9 -30 1 -17 12 -17 13 -1 19 11 5 15 3 10 -5 -4 -7 -3
-8 5 -4 6 4 8 12 5 18 -3 5 9 25 27 44 21 21 28 34 18 34 -9 0 -10 3 -3 8 13
9 38 71 31 78 -3 3 -8 -4 -12 -16 -5 -16 -10 -19 -20 -10 -11 9 -20 -1 -45
-51 -17 -35 -35 -68 -40 -75 -6 -6 -7 -13 -4 -17 8 -7 -26 -57 -39 -57 -8 0
-8 3 0 11 6 6 9 18 6 25 -3 8 0 14 6 14 6 0 11 5 11 11 0 6 -9 9 -20 7 -12 -2
-19 -6 -18 -9 2 -4 -8 -17 -22 -29 -14 -12 -19 -18 -11 -15 9 5 8 -1 -4 -19
-17 -26 -33 -37 -19 -13 12 20 -49 -43 -70 -72 -13 -19 -16 -21 -12 -6 4 14
-3 9 -22 -13 -15 -18 -31 -30 -35 -26 -8 8 56 129 113 214 21 30 47 75 60 100
13 25 40 70 60 100 35 52 54 92 55 116 0 12 49 76 78 102 9 9 17 22 17 29 0 6
10 29 22 49 12 21 17 34 10 30 -19 -12 -35 3 -21 20 6 8 8 14 3 14 -5 0 -20
-16 -34 -36z m-150 -108 c0 -16 -26 -39 -46 -42 -19 -3 -18 15 3 38 19 21 43
24 43 4z m53 -15 c-5 -21 -43 -60 -43 -45 0 5 7 18 15 28 8 10 12 23 9 27 -3
5 1 9 9 9 10 0 13 -7 10 -19z m-426 -83 c-3 -8 -6 -5 -6 6 -1 11 2 17 5 13 3
-3 4 -12 1 -19z m423 4 c0 -4 -6 -14 -12 -21 -10 -11 -10 -13 0 -7 6 4 12 4
12 1 0 -4 -52 -86 -116 -183 -64 -97 -126 -191 -138 -209 -44 -67 -25 -20 37
88 35 63 69 125 77 139 7 14 17 32 21 40 42 78 96 159 107 160 6 0 12 -4 12
-8z m-200 -86 c0 -2 -11 -6 -25 -8 -13 -3 -22 -1 -19 3 5 9 44 13 44 5z m20
-41 c0 -8 -6 -12 -14 -9 -8 3 -12 12 -9 20 6 17 23 9 23 -11z m-1071 -7 c0
-13 -3 -17 -6 -10 -2 6 -8 10 -12 8 -4 -3 -8 1 -8 9 0 8 6 15 14 15 7 0 13
-10 12 -22z m984 -33 c-3 -9 -8 -14 -10 -11 -3 3 -2 9 2 15 9 16 15 13 8 -4z
m-976 -1 c-3 -3 -12 -4 -19 -1 -8 3 -5 6 6 6 11 1 17 -2 13 -5z m1063 -18 c0
-2 -7 -9 -15 -16 -13 -11 -14 -10 -9 4 5 14 24 23 24 12z m527 -81 c0 -8 -4
-15 -9 -15 -10 0 -11 14 -1 23 9 10 10 9 10 -8z m-970 -97 c-3 -7 -5 -2 -5 12
0 14 2 19 5 13 2 -7 2 -19 0 -25z m-947 -52 c0 -2 -7 -6 -15 -10 -8 -3 -15 -1
-15 4 0 6 7 10 15 10 8 0 15 -2 15 -4z m-105 -156 c10 -11 16 -20 13 -20 -3 0
-13 9 -23 20 -10 11 -16 20 -13 20 3 0 13 -9 23 -20z m2380 -58 c-22 -21 -46
-36 -52 -34 -8 3 -13 -6 -13 -23 0 -17 -4 -24 -12 -19 -7 4 -8 3 -4 -4 4 -7 1
-12 -6 -12 -11 0 -11 -2 0 -9 10 -6 10 -10 -3 -21 -13 -11 -18 -11 -28 0 -10
10 -9 11 2 5 11 -6 13 -3 9 12 -3 11 1 28 8 38 8 10 14 15 15 9 0 -5 3 -1 7 8
8 19 92 88 107 88 6 0 -8 -17 -30 -38z m39 0 c-8 -18 -20 -32 -25 -32 -6 0 -8
-4 -4 -9 3 -5 0 -13 -6 -16 -5 -4 -8 -13 -5 -21 3 -7 1 -16 -4 -19 -6 -4 -10
1 -10 9 0 9 -4 16 -10 16 -5 0 -10 -5 -10 -11 0 -5 -4 -7 -10 -4 -5 3 -10 1
-10 -4 0 -6 -6 -11 -12 -11 -7 1 -3 9 9 19 17 14 19 21 10 31 -8 8 -8 11 -1 7
6 -4 31 13 55 37 24 23 45 42 47 41 1 -1 -5 -16 -14 -33z m-895 9 c11 -7 6
-18 -24 -54 -34 -41 -40 -44 -65 -36 -35 13 -83 -4 -78 -28 3 -17 23 -26 80
-38 15 -3 37 -15 48 -27 24 -26 28 -73 5 -64 -9 3 -15 0 -15 -8 0 -8 -8 -13
-17 -11 -10 2 -18 4 -18 5 0 3 -38 11 -72 17 -18 3 -33 9 -33 13 0 5 -8 6 -19
3 -24 -6 -61 41 -61 79 0 56 45 114 110 142 38 17 137 21 159 7z m-339 -35 c0
-21 -49 -108 -67 -119 -5 -4 -8 20 -7 56 2 56 5 64 30 79 32 20 44 16 44 -16z
m969 -149 c82 -183 194 -429 243 -535 21 -46 38 -85 38 -88 0 -2 32 -72 71
-155 38 -83 68 -153 66 -156 -9 -8 -190 -34 -219 -31 -26 3 -33 11 -62 78 -38
88 -12 83 -240 42 l-149 -28 -35 -84 c-19 -47 -36 -86 -38 -88 -5 -8 -215 -44
-220 -39 -4 3 34 109 84 234 104 261 291 739 348 890 22 57 41 103 44 103 3 0
34 -64 69 -143z m287 101 c-15 -25 -33 -43 -43 -43 -11 0 -17 -7 -15 -17 1 -9
-12 -24 -33 -37 -36 -21 -55 -27 -42 -14 4 3 2 12 -4 19 -13 16 33 68 48 53 7
-7 19 0 38 23 15 18 34 32 40 30 7 -1 15 4 19 13 3 8 8 15 11 15 3 0 -5 -19
-19 -42z m-1466 -51 c50 -33 75 -82 74 -147 0 -31 -7 -68 -17 -86 -13 -26 -21
-31 -43 -26 -19 3 -25 1 -20 -7 5 -7 2 -10 -6 -9 -7 2 -12 -3 -10 -10 1 -8 -2
-11 -9 -7 -7 5 -3 16 13 32 22 24 22 25 2 15 -30 -16 -35 -6 -18 33 19 47 18
78 -7 109 -42 54 -135 25 -159 -50 -13 -40 0 -87 29 -104 11 -6 12 -9 3 -10
-7 0 -11 -4 -8 -8 3 -5 -1 -9 -8 -9 -8 0 -12 6 -9 13 2 6 -1 15 -8 20 -7 4
-10 3 -6 -3 9 -15 -29 -47 -44 -37 -7 4 -5 -3 4 -16 9 -14 27 -30 39 -37 13
-7 17 -12 11 -13 -7 0 -30 16 -52 35 -72 65 -74 164 -5 258 61 84 181 114 254
64z m-330 -59 c0 -63 -9 -78 -52 -84 -46 -8 -58 -26 -58 -89 0 -26 -4 -44 -9
-40 -5 3 -24 7 -41 9 -25 3 -33 -1 -40 -18 -6 -15 -9 -3 -9 43 l-1 63 -45 -4
-45 -3 0 52 0 51 93 16 c50 9 112 21 137 25 70 14 70 14 70 -21z m1767 6 c-3
-3 -12 -4 -19 -1 -8 3 -5 6 6 6 11 1 17 -2 13 -5z m-42 -25 c-10 -15 -25 -10
-19 6 4 8 10 12 15 9 5 -3 7 -10 4 -15z m-2067 -81 l-3 -73 -45 0 c-44 0 -45
-1 -51 -35 -4 -21 -7 2 -7 57 1 56 5 96 12 102 10 8 34 14 84 20 10 1 12 -17
10 -71z m-278 -30 c0 -86 -7 -105 -38 -111 -15 -3 -35 -9 -44 -12 -16 -6 -18
1 -18 78 l0 86 43 9 c23 6 45 10 50 11 4 1 7 -27 7 -61z m-346 -6 c9 -21 -32
5 -45 29 -11 21 -11 21 15 3 14 -11 27 -25 30 -32z m236 -576 c193 -384 295
-598 287 -601 -34 -12 -252 -53 -257 -49 -2 3 -24 47 -47 97 -23 50 -47 93
-52 95 -8 3 -188 -30 -429 -79 -52 -10 -53 -11 -80 -72 -16 -34 -39 -93 -52
-131 -19 -52 -30 -70 -50 -78 -45 -17 -262 -70 -267 -64 -3 2 16 56 42 118 26
62 58 140 71 173 12 33 55 132 94 220 40 88 89 201 110 250 34 80 77 180 130
300 10 22 36 85 59 140 102 246 125 295 133 287 5 -5 143 -277 308 -606z m943
497 c-7 -2 -19 -2 -25 0 -7 3 -2 5 12 5 14 0 19 -2 13 -5z m141 -2 c3 -4 -7
-19 -22 -32 l-27 -24 23 26 c12 14 19 29 15 32 -3 4 -4 7 0 7 3 0 8 -4 11 -9z
m-567 -133 c-2 -18 -4 -6 -4 27 0 33 2 48 4 33 2 -15 2 -42 0 -60z m1206 0 c4
-46 7 -157 7 -248 0 -182 -11 -248 -58 -333 -85 -157 -329 -240 -488 -166 -47
23 -108 84 -126 127 -8 17 -13 127 -16 304 l-4 276 29 6 c69 14 164 28 168 25
2 -2 6 -110 10 -239 4 -129 11 -250 17 -267 13 -45 43 -63 101 -63 65 0 113
24 145 73 l27 41 -3 257 -4 258 39 7 c21 3 54 10 73 14 78 18 76 19 83 -72z
m-2183 68 c0 -2 -7 -7 -16 -10 -8 -3 -12 -2 -9 4 6 10 25 14 25 6z m467 -73
c-2 -16 -4 -3 -4 27 0 30 2 43 4 28 2 -16 2 -40 0 -55z m936 50 c-7 -2 -21 -2
-30 0 -10 3 -4 5 12 5 17 0 24 -2 18 -5z m-160 -183 c165 -63 246 -257 188
-448 -11 -39 -21 -74 -21 -80 0 -8 102 -59 229 -113 l55 -23 -113 -16 c-121
-17 -126 -20 -136 -82 -4 -21 -10 -40 -15 -43 -4 -3 -47 24 -94 59 l-87 63
-62 -26 c-55 -23 -75 -26 -177 -26 -115 0 -115 0 -182 38 -112 63 -152 141
-151 295 0 86 3 98 37 167 62 126 198 233 324 255 61 11 145 3 205 -20z
m-1558 -115 c109 -21 195 -46 195 -56 0 -5 -3 -9 -7 -9 -17 0 -192 43 -223 56
-19 7 -44 15 -55 17 -55 12 21 5 90 -8z m3128 -289 c3 -8 -1 -17 -9 -20 -23
-9 -24 -8 -24 14 0 23 25 27 33 6z m336 -63 c-3 -19 3 -22 26 -13 14 5 25 7
25 5 0 -8 -60 -36 -60 -28 -1 10 -24 -29 -26 -43 -1 -7 10 -11 27 -10 18 1 26
-1 20 -7 -5 -5 -21 -9 -36 -9 -14 0 -23 -3 -21 -6 12 -12 -18 -32 -48 -32 -18
0 -41 -6 -51 -14 -16 -12 -17 -16 -6 -29 7 -9 10 -20 7 -25 -3 -6 34 -22 82
-37 144 -44 142 -43 87 -39 -74 5 -235 36 -235 46 0 4 -8 8 -19 8 -18 0 -18 2
1 63 11 34 26 77 34 95 8 18 12 37 9 42 -6 10 13 16 90 29 67 12 95 12 94 4z
m-3625 -15 c-3 -4 -12 -8 -20 -8 -8 0 -13 -4 -9 -9 3 -5 1 -12 -4 -15 -5 -4
-8 0 -7 6 3 22 14 35 30 35 8 0 13 -4 10 -9z m3416 -31 c0 -2 -16 -50 -35
-108 -46 -135 -126 -397 -161 -526 l-27 -102 -56 -11 c-31 -6 -63 -13 -72 -16
-13 -3 -23 12 -44 63 -28 71 -94 197 -100 191 -7 -6 -93 -232 -100 -260 -7
-28 -14 -31 -107 -52 -25 -6 -29 -2 -48 41 -12 27 -32 75 -45 108 -13 33 -66
151 -119 263 -53 112 -96 210 -96 218 0 8 6 14 13 15 6 0 47 6 89 13 76 12 98
8 98 -18 0 -11 129 -297 139 -308 4 -4 24 45 45 110 51 160 105 315 114 329 7
12 50 -70 153 -295 l43 -94 12 44 c7 23 31 111 54 195 24 83 46 156 50 163 8
13 200 49 200 37z m237 -13 c-3 -3 -12 -4 -19 -1 -8 3 -5 6 6 6 11 1 17 -2 13
-5z m-3667 -18 c0 -2 -8 -10 -17 -17 -16 -13 -17 -12 -4 4 13 16 21 21 21 13z
m-80 -76 c0 -5 -5 -10 -11 -10 -5 0 -7 5 -4 10 3 6 8 10 11 10 2 0 4 -4 4 -10z
m2409 -160 c71 -38 104 -74 137 -145 47 -104 40 -228 -18 -343 -78 -154 -286
-253 -440 -208 -112 32 -190 108 -222 216 -41 139 -1 295 101 391 98 92 193
130 309 125 57 -2 82 -9 133 -36z m-1889 -20 c0 -5 -4 -10 -10 -10 -5 0 -10 5
-10 10 0 6 5 10 10 10 6 0 10 -4 10 -10z m1280 -388 l0 -357 -86 -18 c-48 -10
-88 -16 -90 -14 -3 2 -7 64 -11 136 -6 128 -7 132 -27 127 -12 -2 -67 -15
-123 -27 l-103 -23 0 -132 c0 -118 -2 -133 -17 -138 -30 -9 -154 -36 -164 -36
-5 0 -9 142 -9 360 l0 360 23 5 c12 3 52 11 90 19 l67 14 0 -139 c0 -126 2
-139 18 -139 9 0 68 9 129 21 l112 22 3 141 3 141 75 17 c41 9 83 17 93 17 16
1 17 -22 17 -357z m-1235 317 c3 -3 -1 -6 -7 -6 -7 0 -21 -4 -31 -8 -13 -6
-16 -3 -11 9 5 14 36 17 49 5z m-75 -9 c11 -7 11 -10 2 -10 -7 0 -10 -4 -7
-10 3 -5 0 -7 -9 -4 -11 4 -13 0 -10 -18 l5 -23 -12 22 c-12 22 -7 53 8 53 4
0 15 -5 23 -10z m520 -93 c45 -16 43 -30 -11 -113 -35 -55 -46 -64 -63 -59
-39 12 -105 18 -130 11 -35 -9 -86 -54 -86 -77 0 -30 30 -38 150 -36 150 1
194 -20 226 -110 34 -98 3 -225 -75 -303 -104 -104 -342 -142 -504 -81 l-28
11 61 89 61 88 42 -14 c27 -10 68 -13 114 -11 89 4 127 27 131 79 4 59 -4 63
-140 69 -137 6 -171 19 -205 83 -24 46 -22 141 5 192 40 77 132 148 237 181
51 16 170 17 215 1z m-436 -72 c-4 -8 -11 -15 -16 -15 -6 0 -5 6 2 15 7 8 14
15 16 15 2 0 1 -7 -2 -15z m2054 -268 c2 -9 -4 -20 -13 -23 -20 -8 -50 19 -40
36 10 17 49 8 53 -13z m-2158 -62 c0 -2 -6 -8 -13 -14 -10 -8 -14 -7 -14 2 0
8 6 14 14 14 7 0 13 -1 13 -2z m81 -75 c-17 -17 -31 -27 -31 -23 0 5 11 20 25
33 13 12 22 28 18 34 -3 7 -1 6 7 -1 10 -9 7 -18 -19 -43z m258 -31 c-21 -15
-22 -19 -9 -36 14 -16 13 -17 -2 -5 -9 8 -22 11 -29 7 -8 -6 -7 -10 2 -16 11
-7 10 -9 -3 -9 -10 0 -18 6 -19 13 0 6 -4 2 -9 -10 -6 -16 -18 -23 -35 -23
l-26 0 31 33 c17 17 33 42 36 54 5 17 15 23 42 25 45 4 53 -9 21 -33z m-319
-19 c-8 -5 -17 -7 -19 -4 -3 3 1 9 9 14 8 5 17 7 19 4 3 -3 -1 -9 -9 -14z
m135 10 c-3 -5 -12 -10 -18 -10 -7 0 -6 4 3 10 19 12 23 12 15 0z m-144 -36
c20 -9 24 -13 12 -10 -17 3 -23 0 -23 -14 0 -11 -6 -22 -12 -26 -7 -4 -10 -4
-6 1 4 4 1 13 -8 19 -9 7 -12 18 -8 29 8 21 4 20 45 1z m107 -24 c-7 -10 -15
-17 -18 -15 -9 5 -20 -4 -67 -57 -24 -26 -43 -41 -43 -34 0 17 121 136 132
130 4 -3 2 -13 -4 -24z m-134 -49 c3 -5 -2 -15 -12 -22 -15 -12 -16 -12 -5 2
7 9 10 19 6 22 -3 4 -4 7 0 7 3 0 8 -4 11 -9z m610 -76 c-8 -21 22 -30 40 -12
8 8 12 18 8 21 -3 4 2 4 11 0 10 -3 16 -9 13 -11 -2 -3 4 -13 15 -24 19 -19
19 -19 -2 -40 -11 -11 -18 -27 -15 -35 3 -8 1 -14 -5 -14 -5 0 -7 -10 -4 -23
5 -17 -3 -33 -34 -64 -27 -29 -41 -38 -45 -28 -2 7 2 19 9 25 8 7 12 17 9 22
-3 5 2 8 11 6 9 -2 24 7 32 20 14 19 14 22 0 22 -8 0 -20 -7 -27 -15 -7 -8
-17 -12 -23 -8 -5 3 -7 1 -3 -5 3 -6 2 -13 -4 -17 -5 -3 -10 0 -10 7 0 27 -20
-17 -21 -47 0 -16 -3 -24 -6 -17 -4 10 -8 10 -20 0 -8 -7 -27 -14 -41 -16 -15
-2 -32 -8 -38 -13 -9 -7 -12 -5 -10 8 2 10 -3 32 -11 48 -12 25 -12 27 0 13 8
-10 17 -15 20 -11 11 10 8 43 -3 43 -5 0 -9 3 -9 8 1 4 1 14 0 22 -1 13 -2 13
-11 0 -9 -13 -10 -13 -10 0 -1 8 -8 2 -17 -15 -10 -16 -16 -33 -15 -38 1 -4
-7 -2 -18 5 -12 8 -15 15 -8 19 6 4 7 12 3 18 -5 9 -10 9 -21 0 -10 -8 -14 -8
-14 0 0 6 5 11 10 11 6 0 10 6 10 13 0 8 19 19 43 26 59 18 177 81 190 102 13
20 29 15 21 -6z m1856 -46 c0 -3 11 -6 25 -6 14 0 22 4 18 10 -4 6 -1 7 6 3 7
-5 10 -15 7 -23 -3 -8 -2 -12 3 -8 5 3 17 -2 26 -11 12 -13 13 -19 4 -24 -17
-11 0 -33 20 -26 9 4 5 -3 -9 -15 -22 -18 -25 -19 -28 -5 -2 9 -8 16 -14 16
-5 0 -8 -6 -5 -14 9 -22 -50 14 -62 39 -6 11 -19 31 -28 45 -10 13 -12 21 -5
16 8 -4 12 -1 12 9 0 10 -5 13 -12 9 -7 -4 -10 -4 -6 1 4 4 2 15 -5 23 -6 9 3
5 21 -8 17 -13 32 -27 32 -31z m-1620 -33 c0 -2 -8 -10 -17 -17 -16 -13 -17
-12 -4 4 13 16 21 21 21 13z m-87 -53 c-10 -17 -11 -23 -3 -15 22 19 29 14 24
-15 l-4 -28 14 25 c11 19 12 28 3 39 -10 11 -9 13 3 9 16 -5 17 -22 5 -73 -4
-16 -8 -41 -8 -55 -2 -23 -25 -59 -35 -52 -2 2 -10 -5 -18 -15 -14 -17 -11 -7
23 73 2 7 0 15 -6 18 -6 4 -8 13 -5 21 3 7 -3 19 -13 26 -18 11 -18 12 6 40
32 36 36 37 14 2z m1553 -19 c-3 -8 0 -14 7 -14 7 0 29 -16 51 -34 32 -29 35
-35 17 -33 -26 2 -84 60 -86 86 -1 11 2 18 7 15 5 -4 7 -12 4 -20z m-246 -51
c0 -7 7 -13 15 -13 9 0 20 -11 25 -24 5 -13 14 -27 20 -31 6 -4 8 -15 5 -25
-3 -11 1 -32 9 -49 10 -19 12 -32 6 -36 -6 -3 -10 -2 -10 2 0 5 -7 18 -16 29
-8 10 -13 13 -9 7 3 -7 4 -13 0 -13 -3 0 -10 11 -15 25 -5 14 -14 24 -20 23
-17 -4 -49 99 -36 112 7 7 7 11 1 10 -21 -4 -33 1 -39 16 -6 15 -4 15 11 3 15
-13 16 -12 10 11 -6 23 -5 23 18 -5 13 -17 24 -36 25 -42z m-1626 42 c-4 -8
-11 -12 -16 -9 -6 4 -5 10 3 15 19 12 19 11 13 -6z m-117 -17 c-3 -8 -6 -5 -6
6 -1 11 2 17 5 13 3 -3 4 -12 1 -19z m1096 2 c-3 -12 -8 -19 -11 -16 -5 6 5
36 12 36 2 0 2 -9 -1 -20z m-523 6 c0 -2 -7 -9 -15 -16 -13 -11 -14 -10 -9 4
5 14 24 23 24 12z m-155 -29 c0 -8 4 -19 8 -23 10 -11 9 -24 -3 -24 -5 0 -10
6 -10 14 0 8 -5 18 -12 22 -6 4 -8 3 -5 -3 3 -5 -3 -22 -14 -39 -10 -16 -19
-24 -20 -19 0 6 -5 -1 -10 -14 -5 -13 -12 -21 -16 -18 -3 4 2 18 11 31 8 14
12 27 7 30 -4 3 -8 18 -9 34 -1 28 2 29 36 27 26 -1 37 -6 37 -18z m-327 -20
c-1 -2 3 -11 11 -20 12 -15 11 -17 -3 -17 -11 0 -15 8 -14 25 1 13 4 22 6 20
2 -2 2 -5 0 -8z m813 -14 c-12 -20 -14 -14 -5 12 4 9 9 14 11 11 3 -2 0 -13
-6 -23z m-851 -2 c0 -6 -4 -12 -8 -15 -5 -3 -9 1 -9 9 0 8 4 15 9 15 4 0 8 -4
8 -9z m1246 -69 c0 -31 -1 -45 -3 -29 -3 15 -9 25 -14 22 -5 -4 -9 -4 -9 -2 0
5 22 67 23 67 1 0 2 -26 3 -58z m-626 24 c0 -8 -9 -24 -19 -37 -15 -19 -22
-21 -32 -12 -9 9 -5 17 16 37 32 30 35 31 35 12z m694 -35 c-4 -3 -9 0 -11 7
-3 6 -10 9 -16 5 -7 -3 -9 -3 -5 2 4 4 2 15 -4 24 -7 9 0 5 15 -8 15 -14 24
-27 21 -30z m486 -32 c0 -5 -4 -9 -8 -9 -9 0 -32 44 -32 58 1 10 40 -38 40
-49z m-238 -23 c-8 -14 -20 27 -14 44 4 11 8 8 12 -10 4 -14 5 -29 2 -34z
m-1170 22 c-7 -7 -12 -8 -12 -2 0 14 12 26 19 19 2 -3 -1 -11 -7 -17z m947 9
c8 -10 7 -14 -4 -14 -8 0 -16 6 -19 14 -3 7 -2 13 3 13 5 0 14 -6 20 -13z
m-998 -24 c-12 -20 -14 -14 -5 12 4 9 9 14 11 11 3 -2 0 -13 -6 -23z m919 -23
c0 -11 -4 -20 -9 -20 -5 0 -7 9 -4 20 3 11 7 20 9 20 2 0 4 -9 4 -20z m84 4
c5 -14 4 -15 -9 -4 -17 14 -19 20 -6 20 5 0 12 -7 15 -16z m240 -9 c-4 -8 -2
-15 3 -15 8 0 10 -25 3 -50 0 -3 -7 10 -15 29 -15 33 -13 51 5 51 5 0 7 -7 4
-15z m-1034 1 c0 -3 -4 -8 -10 -11 -5 -3 -10 -1 -10 4 0 6 5 11 10 11 6 0 10
-2 10 -4z m685 -25 c2 -11 0 -21 -6 -21 -5 0 -9 12 -9 27 0 30 9 27 15 -6z
m129 -5 c-3 -8 -1 -17 5 -21 6 -3 11 -11 11 -18 0 -6 -7 -1 -16 11 -8 12 -12
27 -9 32 9 15 15 12 9 -4z m-97 -38 c6 -24 11 -43 10 -44 -1 -1 -11 8 -22 19
-11 11 -14 17 -7 13 15 -9 15 -5 2 28 -5 14 -6 26 -2 26 4 0 13 -19 19 -42z
m258 10 c6 -4 2 -8 -7 -8 -10 0 -18 7 -18 17 0 9 3 12 8 7 4 -5 12 -12 17 -16z
m115 7 c0 -8 -2 -15 -4 -15 -2 0 -6 7 -10 15 -3 8 -1 15 4 15 6 0 10 -7 10
-15z m-310 -47 c0 -5 5 -6 12 -2 7 5 9 2 5 -8 -6 -16 12 -91 26 -104 10 -10 9
-24 -2 -24 -5 0 -12 12 -16 27 -3 15 -13 32 -20 37 -8 6 -18 30 -23 53 -8 34
-7 40 4 36 8 -3 14 -9 14 -15z m242 -16 c3 -11 0 -19 -7 -19 -7 0 -10 8 -7 19
2 10 6 18 7 18 1 0 5 -8 7 -18z m-282 -26 c0 -2 -7 -6 -15 -10 -8 -3 -15 -1
-15 4 0 6 7 10 15 10 8 0 15 -2 15 -4z m107 -88 c-3 -8 -6 -5 -6 6 -1 11 2 17
5 13 3 -3 4 -12 1 -19z"/>
<path d="M4000 3479 c0 -5 5 -7 10 -4 6 3 10 8 10 11 0 2 -4 4 -10 4 -5 0 -10
-5 -10 -11z"/>
<path d="M3705 2928 c-10 -24 -34 -89 -55 -145 -32 -87 -35 -103 -21 -103 22
0 195 31 200 35 5 6 -11 45 -62 158 l-45 97 -17 -42z"/>
<path d="M4046 3453 c-6 -14 -5 -15 5 -6 7 7 10 15 7 18 -3 3 -9 -2 -12 -12z"/>
<path d="M3962 3387 c-9 -11 -8 -13 6 -12 19 1 29 18 14 23 -5 1 -14 -3 -20
-11z"/>
<path d="M1233 2663 c-107 -264 -135 -335 -129 -340 5 -5 242 32 278 43 16 5
16 8 -2 47 -10 23 -42 95 -71 160 -28 64 -54 117 -58 117 -4 0 -12 -12 -18
-27z"/>
<path d="M2135 2688 c-52 -12 -99 -44 -133 -92 -22 -33 -28 -52 -30 -116 -4
-71 -2 -78 24 -109 15 -19 43 -40 61 -47 40 -17 153 -19 153 -3 0 7 -25 43
-56 81 -31 38 -55 70 -53 72 2 2 47 -9 99 -25 52 -15 102 -28 111 -28 35 -2
39 125 7 189 -35 68 -102 96 -183 78z"/>
<path d="M2663 1919 c-105 -52 -144 -206 -76 -303 23 -33 38 -43 77 -53 135
-34 248 58 250 202 2 141 -122 218 -251 154z"/>
<path d="M1535 1861 c3 -5 1 -12 -5 -16 -5 -3 -10 -11 -10 -18 0 -6 7 -2 15 9
17 23 19 34 4 34 -5 0 -8 -4 -4 -9z"/>
<path d="M971 1324 c0 -11 3 -14 6 -6 3 7 2 16 -1 19 -3 4 -6 -2 -5 -13z"/>
<path d="M1656 1145 c4 -8 8 -15 10 -15 2 0 4 7 4 15 0 8 -4 15 -10 15 -5 0
-7 -7 -4 -15z"/>
<path d="M1616 1132 c-3 -4 4 -9 15 -9 23 -2 25 3 4 10 -8 4 -16 3 -19 -1z"/>
<path d="M1464 1022 c4 -7 3 -12 -1 -12 -12 0 -15 -57 -4 -65 5 -3 9 8 9 23
-1 16 2 34 6 40 3 6 1 14 -5 18 -8 4 -9 3 -5 -4z"/>
<path d="M1490 986 c14 -18 13 -19 -3 -13 -15 6 -16 4 -6 -15 11 -21 12 -21
25 -3 14 19 20 44 7 32 -3 -4 -13 -1 -22 6 -14 11 -15 10 -1 -7z"/>
<path d="M1735 909 c-4 -6 -5 -12 -2 -15 2 -3 7 2 10 11 7 17 1 20 -8 4z"/>
<path d="M3045 899 c-4 -6 -5 -12 -2 -15 2 -3 7 2 10 11 7 17 1 20 -8 4z"/>
<path d="M1675 990 c-4 -6 -11 -8 -16 -5 -5 3 -6 -1 -3 -10 4 -9 7 -15 8 -13
1 2 8 11 15 21 7 9 11 17 8 17 -3 0 -9 -5 -12 -10z"/>
<path d="M1926 873 c-6 -14 -5 -15 5 -6 7 7 10 15 7 18 -3 3 -9 -2 -12 -12z"/>
<path d="M2202 4305 c1 -19 -1 -37 -5 -41 -9 -9 11 -44 26 -43 9 0 9 2 0 6 -7
2 -13 12 -13 21 0 13 2 12 14 -3 8 -11 12 -23 10 -27 -4 -6 48 -48 60 -48 9 0
7 113 -3 128 -6 10 -10 4 -15 -18 -7 -39 -31 -35 -32 6 -1 49 -3 54 -24 54
-17 0 -20 -6 -18 -35z"/>
<path d="M3481 4324 c0 -11 3 -14 6 -6 3 7 2 16 -1 19 -3 4 -6 -2 -5 -13z"/>
<path d="M2481 4304 c0 -11 3 -14 6 -6 3 7 2 16 -1 19 -3 4 -6 -2 -5 -13z"/>
<path d="M3492 4298 c-16 -16 -15 -29 1 -22 8 3 14 11 14 19 0 18 0 18 -15 3z"/>
<path d="M1717 4294 c-3 -3 2 -23 11 -46 13 -33 17 -37 23 -22 6 15 8 14 8 -8
1 -19 -4 -28 -14 -28 -15 0 -21 -31 -9 -43 18 -17 40 40 35 89 -1 15 -48 64
-54 58z"/>
<path d="M1790 4290 c0 -7 8 -19 18 -27 9 -8 11 -11 3 -7 -9 4 -12 2 -9 -7 3
-8 10 -13 16 -12 8 2 23 -38 26 -72 3 -24 29 -74 36 -70 5 3 2 18 -6 33 -24
46 -15 70 12 35 13 -16 14 -17 8 -1 -4 13 1 19 23 23 15 4 33 8 38 10 6 1 -2
8 -17 15 -16 7 -28 17 -28 22 0 5 6 6 13 2 7 -5 6 -1 -3 10 -8 11 -16 14 -18
7 -2 -6 -10 -11 -17 -11 -7 0 -15 -8 -17 -17 -3 -15 -8 -12 -23 12 -30 46 -55
71 -55 55z m104 -86 c3 -8 2 -12 -4 -9 -6 3 -10 10 -10 16 0 14 7 11 14 -7z"/>
<path d="M2925 4287 c-23 -26 -25 -35 -8 -33 10 2 19 13 21 24 4 25 1 26 -13
9z"/>
<path d="M2780 4280 c0 -5 5 -10 10 -10 6 0 10 5 10 10 0 6 -4 10 -10 10 -5 0
-10 -4 -10 -10z"/>
<path d="M2508 4259 c-4 -22 -2 -25 14 -21 11 3 15 8 10 11 -5 3 -11 13 -14
21 -3 10 -6 6 -10 -11z"/>
<path d="M2980 4248 c0 -4 4 -8 9 -8 6 0 12 4 15 8 3 5 -1 9 -9 9 -8 0 -15 -4
-15 -9z"/>
<path d="M3479 4242 c-1 -10 -1 -21 0 -26 3 -16 -11 -46 -19 -41 -4 3 -11 -11
-15 -31 -3 -20 -16 -53 -29 -73 -33 -55 -46 -90 -36 -96 5 -3 14 4 20 15 6 11
8 20 5 20 -3 0 2 11 11 25 9 14 21 22 27 18 6 -4 8 0 4 10 -3 9 -2 27 3 39 7
19 9 14 9 -25 1 -27 5 -46 10 -43 5 4 8 -2 6 -11 -1 -10 -7 -17 -11 -16 -5 1
-9 -12 -9 -28 0 -16 4 -29 9 -29 5 0 6 -3 3 -6 -4 -4 -13 -1 -22 6 -12 10 -15
10 -15 -4 0 -9 -6 -16 -12 -16 -9 0 -8 -4 2 -10 13 -9 7 -14 -12 -11 -4 0 -5
-6 -2 -13 3 -9 -5 -22 -21 -32 -23 -15 -24 -19 -10 -26 20 -12 75 0 72 15 -1
7 4 11 11 10 6 -2 12 4 12 12 0 8 5 15 10 15 6 0 10 5 10 12 0 6 -9 3 -20 -7
-20 -19 -21 -18 -11 6 5 13 13 23 18 22 5 -1 9 7 9 18 0 10 -4 19 -8 19 -11 0
-10 28 2 35 6 4 7 -1 3 -12 -3 -10 -3 -15 1 -11 4 3 9 12 10 20 5 31 18 58 27
58 6 0 3 8 -7 17 -15 16 -17 16 -30 -2 -8 -10 -14 -14 -14 -7 0 6 10 21 22 32
21 19 23 20 30 3 5 -10 6 7 3 37 -3 32 -12 60 -20 66 -20 15 -19 31 3 43 9 6
15 11 12 11 -34 8 -40 6 -41 -8z m21 -81 c0 -5 3 -16 6 -25 4 -10 1 -16 -9
-16 -16 0 -30 27 -21 41 7 12 24 12 24 0z m-88 -313 c-7 -7 -12 -8 -12 -2 0 6
3 14 7 17 3 4 9 5 12 2 2 -3 -1 -11 -7 -17z"/>
<path d="M1990 4235 c0 -8 5 -15 10 -15 6 0 10 7 10 15 0 8 -4 15 -10 15 -5 0
-10 -7 -10 -15z"/>
<path d="M2706 4235 c-3 -8 -12 -12 -21 -9 -9 4 -15 1 -15 -9 0 -18 -21 -17
-44 2 -9 8 -19 11 -23 8 -8 -9 17 -37 33 -37 7 0 14 -12 16 -27 2 -17 10 -29
21 -31 14 -3 16 0 7 22 -7 19 -6 24 4 20 16 -6 40 21 31 36 -3 5 -2 10 3 10 6
0 12 7 16 15 3 9 0 15 -8 15 -8 0 -16 -7 -20 -15z"/>
<path d="M2837 4231 c-2 -10 -1 -25 4 -32 6 -10 9 -4 9 19 0 36 -5 42 -13 13z"/>
<path d="M2543 4215 c0 -11 4 -12 14 -4 7 6 13 13 13 15 0 2 -6 4 -13 4 -8 0
-14 -7 -14 -15z"/>
<path d="M1805 4210 c-4 -6 -12 -7 -18 -3 -7 3 -3 -3 7 -15 24 -27 24 -27 24
3 0 27 -3 31 -13 15z"/>
<path d="M1686 4177 c3 -10 9 -15 12 -12 3 3 0 11 -7 18 -10 9 -11 8 -5 -6z"/>
<path d="M2230 4180 c0 -5 5 -10 10 -10 6 0 10 5 10 10 0 6 -4 10 -10 10 -5 0
-10 -4 -10 -10z"/>
<path d="M2096 4154 c-8 -21 -8 -24 4 -24 6 0 10 7 10 16 0 9 5 12 12 8 7 -4
8 -3 4 4 -10 17 -23 15 -30 -4z"/>
<path d="M2275 4150 c4 -6 11 -8 16 -5 14 9 11 15 -7 15 -8 0 -12 -5 -9 -10z"/>
<path d="M2536 4147 c3 -10 9 -15 12 -12 3 3 0 11 -7 18 -10 9 -11 8 -5 -6z"/>
<path d="M1771 4134 c0 -11 3 -14 6 -6 3 7 2 16 -1 19 -3 4 -6 -2 -5 -13z"/>
<path d="M1719 4111 c11 -15 18 -31 14 -35 -3 -3 1 -6 11 -6 9 0 14 -4 11 -10
-3 -5 -1 -10 5 -10 7 0 10 7 6 15 -3 8 3 22 12 32 16 16 16 16 0 11 -9 -4 -19
-2 -22 5 -3 9 -5 9 -5 0 -1 -20 -18 -15 -24 7 -3 11 -10 20 -17 20 -7 0 -3
-12 9 -29z"/>
<path d="M2240 4125 c0 -5 5 -17 10 -25 5 -8 10 -10 10 -5 0 6 -5 17 -10 25
-5 8 -10 11 -10 5z"/>
<path d="M2677 4103 c-4 -3 -7 -13 -7 -21 0 -18 13 -7 16 13 2 17 1 18 -9 8z"/>
<path d="M1631 4050 c-7 -24 -18 -40 -27 -40 -9 0 -14 -6 -11 -12 5 -14 9 -14
42 -3 16 6 17 5 5 -4 -12 -9 -11 -11 8 -11 20 0 21 3 12 20 -6 11 -16 20 -23
20 -8 0 -7 4 3 10 8 5 11 12 7 16 -4 4 -2 13 4 20 6 7 6 15 1 18 -5 3 -14 -13
-21 -34z"/>
<path d="M1692 4044 c-9 -10 -9 -14 -1 -14 6 0 9 -8 7 -18 -4 -12 1 -18 13
-18 11 0 19 1 19 2 0 1 -6 15 -13 32 -10 25 -14 27 -25 16z"/>
<path d="M1560 4037 c0 -19 16 -31 24 -18 3 5 -1 14 -9 21 -12 10 -15 10 -15
-3z"/>
<path d="M2417 4028 c3 -13 13 -29 22 -37 14 -11 13 -12 -9 -7 -21 6 -22 5 -8
-4 22 -14 54 2 63 30 8 26 -4 48 -16 29 -6 -10 -9 -11 -9 -1 0 6 -11 12 -24
12 -20 0 -23 -4 -19 -22z"/>
<path d="M2105 4030 c-3 -5 -1 -10 4 -10 6 0 11 5 11 10 0 6 -2 10 -4 10 -3 0
-8 -4 -11 -10z"/>
<path d="M1492 4025 c2 -5 14 -32 26 -59 16 -35 26 -46 38 -42 9 3 24 6 35 6
10 0 19 4 19 10 0 5 -7 7 -15 4 -8 -4 -21 -1 -29 5 -7 6 -17 7 -21 3 -5 -4 -5
-2 -2 4 3 6 -7 26 -24 45 -17 19 -29 30 -27 24z"/>
<path d="M1321 4011 c-12 -8 -12 -12 -2 -25 7 -9 17 -13 22 -10 5 3 9 3 9 0 0
-3 -9 -10 -20 -16 -16 -9 -24 -7 -36 5 -24 24 -44 19 -44 -12 0 -22 -2 -25
-10 -13 -7 11 -10 11 -10 2 0 -7 -5 -10 -10 -7 -6 4 -8 10 -5 15 6 10 -34 35
-43 26 -3 -3 0 -6 7 -6 8 0 9 -5 2 -18 -13 -25 21 -58 39 -37 12 14 46 8 91
-16 22 -11 23 -11 10 4 -12 15 -11 17 2 17 9 0 22 -8 29 -18 13 -18 68 -56 68
-48 0 3 -12 17 -27 31 -15 14 -22 25 -15 25 6 0 12 -5 12 -12 0 -6 3 -8 7 -5
3 4 20 -12 36 -35 16 -25 26 -34 22 -21 -5 18 -3 22 9 17 9 -3 16 -9 16 -13 0
-4 7 -16 16 -27 8 -10 13 -14 11 -9 -3 6 -8 28 -11 50 -4 22 -11 42 -17 44 -5
1 -2 9 8 16 14 10 15 16 5 27 -6 8 -9 18 -5 21 3 4 2 7 -4 7 -6 0 -17 -8 -24
-17 -12 -14 -12 -16 0 -8 9 5 12 4 7 -3 -7 -12 -36 -5 -36 9 0 5 -6 9 -13 9
-7 0 -26 14 -42 30 -32 33 -34 34 -54 21z m59 -35 c0 -2 -8 -10 -17 -17 -16
-13 -17 -12 -4 4 13 16 21 21 21 13z m18 -38 c19 -19 14 -29 -8 -16 -20 13
-27 28 -12 28 4 0 13 -5 20 -12z m59 -42 c-1 -6 4 -10 11 -8 14 2 16 -4 3 -12
-4 -3 -16 3 -25 13 -13 14 -14 18 -2 18 8 0 14 -5 13 -11z"/>
<path d="M1902 4013 c2 -5 10 -25 18 -45 16 -44 25 -48 25 -14 0 13 -3 22 -6
20 -4 -2 -10 7 -13 21 -4 14 -11 25 -17 25 -6 0 -9 -3 -7 -7z"/>
<path d="M3345 3989 c-11 -16 -23 -29 -27 -29 -5 0 -8 -11 -8 -25 0 -14 -4
-25 -9 -25 -10 0 -34 -61 -26 -68 7 -7 7 -7 54 87 43 88 49 110 16 60z"/>
<path d="M1136 3962 c-8 -24 7 -52 28 -52 6 0 5 4 -3 9 -7 5 -11 13 -9 17 3 5
2 18 -2 29 -7 19 -7 19 -14 -3z"/>
<path d="M1590 3971 c0 -3 9 -12 19 -18 24 -15 55 -78 46 -92 -3 -6 -1 -11 4
-11 6 0 11 5 11 11 0 5 5 7 10 4 6 -3 10 2 11 12 0 10 2 29 4 43 1 14 -1 32
-6 40 -6 11 -8 11 -9 2 0 -15 -31 -12 -42 3 -8 11 -48 16 -48 6z"/>
<path d="M2311 3896 c-1 -37 2 -47 10 -39 8 8 8 22 1 50 l-10 38 -1 -49z"/>
<path d="M1181 3883 c7 -12 15 -20 18 -17 3 2 -3 12 -13 22 -17 16 -18 16 -5
-5z"/>
<path d="M1214 3812 c1 -20 6 -45 11 -56 7 -16 5 -17 -16 -11 -31 10 -46 13
-36 7 4 -2 1 -9 -8 -16 -14 -10 -7 -12 38 -12 47 1 53 3 44 16 -7 8 5 4 26 -9
20 -12 37 -18 37 -12 0 6 -4 11 -9 11 -5 0 -13 9 -16 21 -4 11 -9 18 -12 16
-9 -10 -55 43 -50 57 4 9 2 18 -2 21 -5 3 -8 -12 -7 -33z"/>
<path d="M1705 3800 c12 -19 43 -31 51 -18 4 6 3 8 -4 4 -6 -3 -17 1 -25 9
-17 17 -31 20 -22 5z"/>
<path d="M3426 3737 c-12 -15 -20 -18 -23 -9 -8 20 -22 14 -18 -8 2 -11 6 -24
9 -29 4 -5 0 -11 -6 -14 -7 -2 -10 -8 -5 -13 4 -4 15 3 25 17 9 13 14 25 12
25 -3 1 4 11 14 23 11 12 17 23 15 25 -2 3 -13 -5 -23 -17z m-18 -42 c-3 -3
-9 2 -12 12 -6 14 -5 15 5 6 7 -7 10 -15 7 -18z"/>
<path d="M3457 3732 c-25 -27 -21 -36 5 -12 12 11 19 22 16 25 -2 3 -12 -3
-21 -13z"/>
<path d="M3766 3685 c-3 -9 0 -15 9 -15 8 0 15 7 15 15 0 8 -4 15 -9 15 -5 0
-11 -7 -15 -15z"/>
<path d="M3967 3649 c-27 -21 -54 -36 -59 -32 -6 3 -8 2 -5 -4 3 -5 -4 -20
-16 -34 -12 -13 -24 -33 -25 -44 -2 -11 -9 -23 -15 -27 -7 -5 -8 -8 -2 -8 30
0 153 118 159 151 1 8 5 20 9 27 12 18 7 15 -46 -29z"/>
<path d="M1150 3650 c0 -5 5 -10 10 -10 6 0 10 5 10 10 0 6 -4 10 -10 10 -5 0
-10 -4 -10 -10z"/>
<path d="M3765 3650 c-3 -6 1 -7 9 -4 18 7 21 14 7 14 -6 0 -13 -4 -16 -10z"/>
<path d="M621 3609 c20 -31 106 -89 123 -83 7 3 25 0 41 -6 19 -7 32 -7 38 -1
14 14 4 23 -26 25 -14 0 -23 4 -21 7 10 16 -42 44 -102 55 -15 3 -36 10 -48
16 -20 11 -20 10 -5 -13z"/>
<path d="M1516 3618 c3 -5 10 -6 15 -3 13 9 11 12 -6 12 -8 0 -12 -4 -9 -9z"/>
<path d="M910 3611 c0 -5 -3 -16 -6 -24 -4 -12 0 -14 15 -10 12 3 36 -6 64
-25 32 -21 49 -27 60 -20 13 7 15 5 11 -7 -3 -8 -11 -15 -17 -15 -6 0 -7 -3
-4 -6 4 -4 13 -1 22 6 8 7 15 9 15 5 0 -4 6 -2 13 4 16 13 15 56 0 56 -6 0
-15 3 -19 7 -4 4 -13 3 -19 -2 -9 -8 -14 -6 -19 5 -3 10 1 15 12 16 9 0 12 3
6 5 -6 3 -22 0 -35 -5 -17 -7 -19 -10 -6 -10 9 -1 17 -8 17 -17 0 -10 6 -13
18 -10 12 4 26 -2 38 -16 l19 -22 -24 16 c-13 9 -30 14 -37 11 -8 -3 -39 11
-69 31 -30 20 -55 32 -55 27z"/>
<path d="M3753 3583 c-7 -2 -13 -14 -13 -25 0 -21 1 -20 20 2 27 31 25 36 -7
23z"/>
<path d="M1125 3570 c3 -5 8 -10 11 -10 2 0 4 5 4 10 0 6 -5 10 -11 10 -5 0
-7 -4 -4 -10z"/>
<path d="M3690 3565 c0 -16 16 -20 24 -6 3 5 -1 11 -9 15 -9 3 -15 0 -15 -9z"/>
<path d="M928 3552 c-10 -2 -18 -7 -18 -11 0 -4 -6 -8 -12 -9 -51 -7 -62 -10
-65 -19 -5 -13 51 -25 55 -12 4 10 51 1 70 -14 8 -6 12 -6 12 2 0 6 -4 11 -10
11 -5 0 -10 5 -10 10 0 7 8 7 23 -1 17 -9 19 -9 11 0 -6 7 -20 14 -30 16 -11
2 -21 4 -24 4 -3 1 2 5 10 11 18 11 11 18 -12 12z"/>
<path d="M860 3476 c0 -2 7 -6 15 -10 8 -3 15 -1 15 4 0 6 -7 10 -15 10 -8 0
-15 -2 -15 -4z"/>
<path d="M1004 3452 c15 -18 16 -24 6 -37 -10 -12 -9 -16 6 -21 11 -3 27 -10
36 -15 28 -15 35 -10 10 7 -28 19 -28 34 0 26 14 -3 19 -2 14 6 -4 7 -13 12
-20 12 -7 0 -26 10 -42 22 l-29 22 19 -22z"/>
<path d="M1457 3449 c7 -7 15 -10 18 -7 3 3 -2 9 -12 12 -14 6 -15 5 -6 -5z"/>
<path d="M880 3437 c0 -1 25 -20 55 -42 56 -41 72 -75 35 -75 -13 0 -24 10
-30 25 -5 14 -14 25 -20 25 -6 0 -8 -5 -3 -12 4 -7 -5 -5 -20 5 -15 9 -28 15
-28 12 -1 -3 -2 -8 -3 -12 -1 -5 -5 -13 -9 -20 -4 -6 -1 -13 5 -16 7 -2 -9 -5
-37 -6 -27 0 -65 -4 -83 -7 l-33 -6 27 -14 c15 -8 42 -16 60 -18 18 -3 43 -7
55 -11 15 -5 19 -4 15 4 -5 8 0 8 18 0 20 -10 28 -9 41 5 15 15 14 16 -19 16
-19 0 -37 4 -40 9 -4 5 17 8 50 6 66 -4 109 6 109 25 0 7 -20 28 -45 46 -45
34 -100 67 -100 61z"/>
<path d="M4216 3391 c-3 -5 1 -12 10 -15 20 -8 29 -1 19 13 -8 13 -22 14 -29
2z"/>
<path d="M4260 3380 c-1 -8 -2 -19 -1 -24 1 -5 -5 -6 -14 -3 -9 4 -15 1 -15
-8 0 -8 4 -15 9 -15 16 0 33 29 28 47 -3 13 -5 14 -7 3z"/>
<path d="M4195 3352 c-5 -4 -11 -16 -12 -27 -1 -20 -1 -20 13 -1 20 28 20 43
-1 28z"/>
<path d="M1396 3327 c3 -10 9 -15 12 -12 3 3 0 11 -7 18 -10 9 -11 8 -5 -6z"/>
<path d="M4214 3324 c3 -6 -6 -22 -19 -34 -14 -13 -25 -29 -25 -35 0 -6 -11
-18 -25 -25 -14 -7 -25 -18 -25 -23 0 -5 11 -2 25 7 27 18 39 21 30 7 -3 -6 4
-9 15 -8 11 1 20 5 20 9 0 4 5 8 11 8 17 0 -54 -78 -71 -79 -9 -1 -3 9 14 22
25 20 27 25 12 30 -11 4 -27 -3 -46 -20 -32 -28 -39 -46 -15 -37 8 4 22 1 30
-6 8 -7 15 -9 15 -4 0 4 6 0 13 -11 18 -23 33 -14 41 26 3 17 20 49 38 71 29
37 30 42 15 53 -9 6 -14 15 -10 18 3 4 0 7 -7 7 -7 0 -19 8 -27 18 -8 9 -12
12 -9 6z m11 -34 c-3 -5 -16 -15 -28 -21 l-22 -12 20 21 c21 22 41 30 30 12z"/>
<path d="M724 3281 c4 -5 -3 -7 -14 -4 -24 6 -28 -18 -5 -37 14 -11 19 -7 16
13 -2 13 7 8 33 -18 25 -25 25 -25 3 -25 -24 -1 -64 -26 -55 -36 4 -3 20 2 36
10 22 11 37 13 54 7 13 -6 17 -10 8 -10 -9 -1 -24 -10 -34 -22 -11 -13 -25
-19 -37 -16 -23 6 -37 -12 -18 -24 10 -6 6 -9 -14 -9 -40 0 -29 -24 12 -28 18
-2 31 0 28 5 -3 4 5 8 18 8 13 0 21 -3 18 -7 -2 -5 1 -8 8 -8 7 0 9 9 6 22 -6
20 -3 19 17 -6 14 -19 29 -27 38 -23 9 3 21 0 27 -6 8 -8 9 -4 6 13 -2 12 -2
20 2 16 3 -3 12 -1 20 5 7 6 22 9 34 6 15 -4 19 -2 15 8 -3 8 5 21 17 30 19
13 20 17 7 25 -8 5 -16 6 -18 1 -1 -4 -14 -6 -27 -3 -18 3 -25 0 -25 -11 0 -9
-8 -15 -19 -14 -11 0 -18 4 -15 8 9 15 -9 39 -30 40 -20 0 -20 1 -1 9 14 6 16
9 5 10 -8 2 -18 2 -22 1 -5 0 -8 9 -8 21 0 17 -3 19 -12 10 -7 -7 -17 -12 -22
-12 -6 0 -5 5 2 12 19 19 14 28 -13 28 -14 0 -25 5 -25 10 0 6 -5 10 -11 10
-5 0 -8 -4 -5 -9z m51 -31 c-3 -5 -10 -10 -16 -10 -5 0 -9 5 -9 10 0 6 7 10
16 10 8 0 12 -4 9 -10z m66 -87 c13 -16 12 -17 -3 -4 -10 7 -18 15 -18 17 0 8
8 3 21 -13z m-31 -3 c0 -5 -7 -7 -15 -4 -8 4 -15 8 -15 10 0 2 7 4 15 4 8 0
15 -4 15 -10z"/>
<path d="M879 3191 c11 -7 11 -9 0 -14 -10 -4 -10 -6 2 -6 9 -1 19 6 23 14 4
11 -1 15 -17 15 -16 0 -18 -3 -8 -9z"/>
<path d="M971 3141 c-18 -14 -21 -20 -11 -26 8 -5 11 -4 6 3 -3 6 3 13 14 17
11 3 20 11 20 16 0 12 -1 12 -29 -10z"/>
<path d="M4160 3101 c0 -25 6 -27 13 -6 4 8 2 17 -3 20 -6 4 -10 -3 -10 -14z"/>
<path d="M644 3086 c-3 -9 -13 -16 -21 -16 -9 0 -22 -8 -29 -17 -13 -17 -14
-17 -8 0 8 23 0 21 -32 -8 -14 -13 -30 -22 -35 -19 -5 3 -9 1 -9 -4 0 -5 -11
-21 -25 -36 -14 -15 -25 -24 -25 -20 0 4 -8 0 -17 -9 -10 -8 -22 -17 -28 -19
-20 -7 -12 -25 12 -25 17 0 21 2 12 8 -7 4 -10 11 -6 15 12 12 40 14 53 3 8
-7 14 -6 19 1 3 5 12 10 18 10 7 0 6 -4 -3 -10 -10 -7 8 -8 58 -4 47 5 72 3
72 -3 0 -13 -24 -23 -51 -23 -11 0 -18 -4 -15 -8 2 -4 36 -8 75 -7 39 0 71 -3
71 -7 0 -5 7 -8 16 -8 14 0 14 3 4 15 -11 13 -10 14 6 8 17 -6 18 -5 5 11 -8
10 -23 15 -33 13 -10 -3 -16 -1 -13 4 4 5 -8 6 -25 3 -20 -5 -30 -3 -30 6 0 8
14 11 45 8 32 -2 45 1 45 10 0 7 -4 11 -9 7 -5 -3 -13 -1 -16 5 -4 6 -3 10 2
9 21 -4 44 2 39 10 -3 5 1 14 9 21 8 7 15 18 15 24 0 6 -5 4 -10 -4 -7 -11
-10 -12 -10 -2 0 9 -7 11 -19 7 -11 -3 -22 -1 -25 4 -4 6 -14 7 -23 4 -10 -4
-14 -2 -10 4 4 6 -5 10 -23 9 -17 -1 -30 -5 -30 -10 0 -5 -3 -6 -7 -3 -3 4
-12 2 -20 -5 -11 -8 -12 -7 -7 6 3 9 14 17 23 18 9 0 21 2 28 2 19 2 22 10 7
24 -12 11 -15 10 -20 -2z m117 -79 c-13 -13 -43 -19 -35 -6 3 5 -2 9 -11 9 -9
0 -13 -4 -10 -10 5 -8 -31 -15 -57 -11 -5 0 -8 -4 -8 -11 0 -9 -3 -9 -11 -1
-13 13 -2 36 14 30 6 -2 34 2 61 8 54 13 75 10 57 -8z m-156 -27 c3 -6 -1 -7
-9 -4 -18 7 -21 14 -7 14 6 0 13 -4 16 -10z"/>
<path d="M4463 3073 c-40 -15 -70 -30 -67 -34 2 -4 -26 -17 -63 -29 -70 -21
-162 -66 -113 -55 l25 6 -23 -14 c-12 -7 -19 -16 -15 -21 4 -4 1 -11 -7 -16
-12 -8 -10 -10 9 -10 14 0 33 7 43 17 10 9 18 11 18 5 0 -6 -8 -16 -17 -21
-17 -10 -17 -12 1 -26 11 -8 16 -15 10 -15 -5 0 -20 -9 -33 -19 l-24 -18 29 2
c43 3 64 15 64 37 0 12 10 23 29 29 15 6 33 21 39 34 7 14 18 26 27 26 8 1 20
3 25 4 6 1 14 3 19 4 5 0 14 14 19 30 7 19 19 31 39 35 52 13 99 77 56 75 -10
0 -50 -12 -90 -26z"/>
<path d="M4125 3071 c-3 -5 -1 -12 4 -15 5 -3 11 1 15 9 6 16 -9 21 -19 6z"/>
<path d="M830 3050 c0 -6 7 -10 15 -10 8 0 15 2 15 4 0 2 -7 6 -15 10 -8 3
-15 1 -15 -4z"/>
<path d="M4143 3007 c-7 -12 -3 -13 52 -6 51 6 47 9 -13 12 -19 1 -36 -2 -39
-6z"/>
<path d="M786 2964 c-20 -19 -21 -31 -1 -14 8 6 19 9 24 5 7 -3 8 0 5 9 -8 20
-9 20 -28 0z"/>
<path d="M780 2900 c0 -5 5 -10 10 -10 6 0 10 5 10 10 0 6 -4 10 -10 10 -5 0
-10 -4 -10 -10z"/>
<path d="M4215 2870 c-3 -5 3 -10 15 -10 12 0 18 5 15 10 -3 6 -10 10 -15 10
-5 0 -12 -4 -15 -10z"/>
<path d="M4310 2832 c0 -4 10 -9 22 -9 18 -2 20 0 8 7 -18 12 -30 13 -30 2z"/>
<path d="M4315 2750 c-3 -5 -1 -10 4 -10 6 0 11 5 11 10 0 6 -2 10 -4 10 -3 0
-8 -4 -11 -10z"/>
<path d="M4312 2717 c-7 -8 -9 -17 -5 -21 4 -4 0 -4 -10 0 -10 3 -17 1 -17 -5
0 -6 -6 -11 -14 -11 -19 0 -30 -32 -14 -42 22 -13 31 -9 17 9 -13 15 -12 15 8
4 25 -13 103 -4 103 11 0 6 -6 8 -13 5 -15 -6 -31 11 -35 38 -5 27 -7 28 -20
12z"/>
<path d="M4380 2644 c-17 -10 -20 -14 -8 -14 9 0 23 -3 32 -6 10 -4 16 -1 16
9 0 23 -12 26 -40 11z"/>
<path d="M4425 2580 c-8 -13 5 -13 25 0 13 8 13 10 -2 10 -9 0 -20 -4 -23 -10z"/>
<path d="M4516 2558 c3 -5 10 -6 15 -3 13 9 11 12 -6 12 -8 0 -12 -4 -9 -9z"/>
<path d="M690 2370 c-8 -5 -10 -10 -5 -10 6 0 17 5 25 10 8 5 11 10 5 10 -5 0
-17 -5 -25 -10z"/>
<path d="M647 2349 c7 -7 15 -10 18 -7 3 3 -2 9 -12 12 -14 6 -15 5 -6 -5z"/>
<path d="M4481 2264 c0 -11 3 -14 6 -6 3 7 2 16 -1 19 -3 4 -6 -2 -5 -13z"/>
<path d="M4260 1961 c-8 -6 -18 -7 -22 -5 -4 3 -8 1 -8 -4 0 -14 38 -22 110
-22 42 0 60 3 51 9 -8 5 -21 7 -29 3 -11 -4 -13 -1 -7 8 6 9 -1 12 -28 8 -20
-2 -33 0 -31 4 7 11 -18 10 -36 -1z"/>
<path d="M4408 1953 c7 -3 16 -2 19 1 4 3 -2 6 -13 5 -11 0 -14 -3 -6 -6z"/>
<path d="M4589 1957 c-1 -4 -2 -13 -3 -19 -1 -7 -10 -12 -20 -10 -12 2 -15 -1
-11 -8 5 -9 1 -10 -14 -5 -12 4 -21 2 -21 -4 0 -6 -8 -11 -17 -11 -15 0 -15 2
-4 9 23 15 -50 24 -93 12 -21 -5 -45 -7 -53 -4 -10 4 -14 2 -10 -4 4 -6 -3 -8
-19 -5 -16 3 -29 -1 -35 -9 -4 -8 -13 -15 -19 -15 -5 -1 -22 -3 -37 -4 -21 -2
-16 -5 17 -9 25 -4 61 -3 80 1 21 4 37 3 41 -4 4 -6 13 -7 20 -2 11 6 11 4 0
-10 -8 -9 -21 -14 -29 -11 -8 3 -20 1 -26 -4 -18 -15 -27 -14 -43 6 -11 13
-13 14 -10 3 3 -9 -1 -24 -9 -35 -10 -14 -14 -15 -14 -4 -1 10 -3 9 -11 -3 -5
-10 -19 -18 -29 -18 -11 0 -20 -5 -20 -11 0 -5 -5 -7 -10 -4 -8 5 -8 11 0 20
9 11 7 12 -8 8 -18 -4 -27 -33 -10 -33 5 0 6 -4 3 -10 -3 -5 -17 -10 -30 -10
-12 0 -37 -13 -55 -30 -26 -24 -29 -31 -16 -36 9 -3 16 -13 16 -20 0 -12 4
-12 21 -4 20 11 18 25 -4 25 -5 0 -11 6 -13 13 -1 7 0 8 3 2 8 -17 23 -1 16
18 -6 15 -5 15 11 3 13 -11 14 -16 4 -22 -9 -5 -4 -11 15 -18 15 -6 27 -13 27
-16 0 -4 -4 -3 -10 0 -5 3 -10 4 -10 1 0 -3 10 -10 21 -17 15 -8 19 -8 15 0
-4 6 -1 11 6 11 10 0 9 3 -2 10 -12 7 -11 12 5 30 18 20 18 21 -1 35 -16 13
-16 14 -1 9 9 -3 28 1 42 10 18 12 24 13 23 4 -2 -7 4 -11 12 -9 8 2 32 7 53
11 40 8 54 16 44 26 -3 3 -14 1 -23 -4 -14 -8 -22 -6 -32 6 -9 12 -11 13 -6 2
4 -8 3 -11 -1 -7 -15 13 -15 39 0 33 8 -3 17 -1 20 4 8 13 45 13 45 -1 0 -5 5
-7 10 -4 6 4 18 1 27 -7 12 -9 15 -10 9 0 -5 8 3 18 23 30 17 9 31 21 31 25 0
5 5 5 10 2 6 -3 13 1 16 9 3 9 10 13 16 10 5 -3 -3 -17 -17 -31 -31 -32 -26
-44 6 -14 13 12 27 21 31 21 5 0 6 5 3 10 -4 6 8 16 25 24 17 7 31 15 30 17
-1 2 2 12 6 22 3 10 4 21 0 24 -3 4 -7 3 -7 0z m-359 -187 c0 -5 -2 -10 -4
-10 -3 0 -8 5 -11 10 -3 6 -1 10 4 10 6 0 11 -4 11 -10z"/>
<path d="M4236 1912 c-2 -4 4 -8 15 -8 10 0 19 4 19 8 0 4 -6 8 -14 8 -8 0
-17 -4 -20 -8z"/>
<path d="M4206 1845 c-3 -9 0 -15 10 -15 8 0 12 5 9 10 -3 6 3 10 14 10 10 0
22 -6 24 -12 3 -8 6 -6 6 5 1 22 -54 24 -63 2z"/>
<path d="M955 1805 c-22 -7 -69 -21 -105 -31 -36 -9 -69 -21 -74 -25 -5 -5 8
-4 28 2 27 8 41 7 52 -2 19 -15 18 -43 -2 -60 -8 -7 -22 -26 -30 -43 -9 -17
-32 -45 -52 -63 -33 -29 -35 -33 -21 -53 8 -12 31 -28 52 -35 33 -11 40 -11
62 7 14 11 22 25 18 33 -3 9 1 15 9 15 21 0 59 30 52 41 -4 6 -15 3 -27 -8
l-22 -18 19 23 c11 12 24 22 30 22 7 0 17 13 23 29 9 24 8 29 -3 24 -8 -3 -14
-11 -14 -18 0 -14 -45 -29 -60 -20 -5 3 -12 0 -16 -6 -5 -8 -3 -9 6 -4 9 5 11
4 6 -3 -13 -21 -26 -12 -22 14 6 29 25 56 36 49 4 -2 5 7 2 20 -2 15 0 25 7
25 6 0 11 6 11 14 0 16 71 76 89 76 23 0 10 -20 -21 -33 -23 -9 -28 -15 -17
-19 8 -3 27 5 43 19 24 20 26 27 15 34 -18 11 -26 11 -74 -6z m-114 -218 c-10
-9 -11 -8 -5 6 3 10 9 15 12 12 3 -3 0 -11 -7 -18z m39 -61 c0 -2 -12 -12 -27
-21 l-28 -18 19 21 c17 20 36 29 36 18z"/>
<path d="M725 1730 c-13 -6 -15 -9 -5 -9 8 0 22 4 30 9 18 12 2 12 -25 0z"/>
<path d="M4126 1663 c-11 -11 -6 -23 9 -23 8 0 15 4 15 9 0 13 -16 22 -24 14z"/>
<path d="M895 1650 c-3 -5 -1 -10 4 -10 6 0 11 5 11 10 0 6 -2 10 -4 10 -3 0
-8 -4 -11 -10z"/>
<path d="M4304 1596 c-10 -7 -27 -12 -37 -10 -11 1 -16 0 -13 -4 4 -3 14 -7
24 -8 9 -2 18 -8 20 -13 6 -17 32 -13 32 4 0 8 -6 15 -12 15 -9 0 -8 3 2 10 8
5 12 11 9 14 -3 3 -14 0 -25 -8z"/>
<path d="M4090 1575 c-8 -10 -7 -16 7 -24 10 -6 13 -11 8 -11 -6 0 -20 7 -33
15 -20 15 -21 15 -15 -1 5 -12 3 -15 -6 -9 -10 6 -11 3 -3 -11 6 -11 24 -27
42 -37 l31 -19 -7 26 c-5 21 -2 26 11 26 10 0 23 -7 30 -16 9 -14 16 -14 34
-5 24 14 19 31 -9 31 -25 0 -36 20 -19 32 11 8 10 9 -3 4 -10 -3 -18 -2 -18 2
0 13 -38 11 -50 -3z"/>
<path d="M4210 1580 c0 -5 5 -10 11 -10 5 0 7 5 4 10 -3 6 -8 10 -11 10 -2 0
-4 -4 -4 -10z"/>
<path d="M4013 1474 c-3 -8 -12 -13 -19 -10 -22 9 -15 -7 11 -27 26 -19 34
-11 13 12 -11 12 -9 13 7 6 41 -16 76 -18 73 -4 -7 33 -74 51 -85 23z m41 -6
c-3 -4 -11 -5 -19 -1 -21 7 -19 12 4 10 11 0 18 -5 15 -9z"/>
<path d="M3975 1430 c3 -5 8 -10 11 -10 2 0 4 5 4 10 0 6 -5 10 -11 10 -5 0
-7 -4 -4 -10z"/>
<path d="M3930 1421 c0 -5 6 -12 13 -15 6 -3 -8 -4 -33 -1 l-45 5 30 -26 c35
-32 61 -76 39 -67 -19 7 -18 -15 3 -35 12 -12 18 -13 21 -4 2 6 11 12 19 12
13 0 13 2 2 16 -12 15 -11 16 9 10 24 -8 29 3 10 23 -11 12 -9 13 7 6 11 -4
36 -9 55 -10 19 -1 56 -8 82 -15 39 -12 51 -12 72 0 20 10 28 11 40 1 8 -7 20
-10 25 -6 6 3 27 -3 48 -13 21 -11 58 -23 83 -27 25 -4 51 -12 58 -18 7 -5 15
-7 18 -4 3 3 -19 23 -48 46 -55 41 -121 74 -131 65 -3 -3 -18 1 -34 10 -17 8
-35 11 -43 6 -7 -4 -18 -6 -24 -4 -6 2 -27 5 -46 8 -19 2 -63 11 -97 19 -43
10 -63 12 -66 4 -2 -7 -12 -5 -27 6 -27 19 -40 21 -40 8z m247 -57 c-3 -3 -12
-4 -19 -1 -8 3 -5 6 6 6 11 1 17 -2 13 -5z"/>
<path d="M3750 1232 c0 -15 25 -62 33 -62 4 0 7 -7 7 -16 0 -8 4 -13 10 -9 5
3 6 13 3 22 -5 13 -1 15 25 11 48 -7 40 18 -12 42 -48 21 -66 25 -66 12z m44
-41 c-6 -6 -34 20 -34 32 0 6 8 2 19 -9 10 -10 17 -21 15 -23z"/>
<path d="M3665 1090 c3 -5 8 -10 11 -10 2 0 4 5 4 10 0 6 -5 10 -11 10 -5 0
-7 -4 -4 -10z"/>
<path d="M3696 1069 c3 -5 9 -7 14 -4 4 3 11 0 13 -5 3 -6 4 -5 3 1 -1 7 -10
13 -19 15 -9 1 -15 -2 -11 -7z"/>
<path d="M3790 1070 c0 -5 -3 -9 -7 -7 -5 1 -8 -2 -8 -8 0 -5 14 -10 32 -10
20 0 38 -7 47 -20 20 -26 20 -35 -1 -35 -14 0 -15 2 -5 9 11 7 10 10 -3 15 -9
3 -22 3 -27 -1 -7 -4 -8 -1 -3 7 5 8 3 11 -6 8 -8 -3 -26 1 -40 8 -27 13 -39
10 -39 -10 0 -6 5 -4 10 4 9 13 10 13 11 0 1 -8 1 -18 0 -22 0 -5 6 -8 15 -8
9 0 30 -10 47 -22 17 -12 27 -16 22 -7 -7 11 -6 12 6 2 17 -13 35 -5 40 17 4
19 -32 81 -43 74 -4 -3 -17 0 -28 6 -13 7 -20 7 -20 0z"/>
<path d="M3700 1040 c0 -5 5 -10 11 -10 5 0 7 5 4 10 -3 6 -8 10 -11 10 -2 0
-4 -4 -4 -10z"/>
<path d="M2128 913 c9 -4 10 -8 2 -18 -7 -8 -7 -16 -2 -19 12 -7 25 22 16 35
-3 5 -11 9 -17 8 -8 0 -8 -2 1 -6z"/>
<path d="M1360 880 c0 -5 5 -10 10 -10 6 0 10 5 10 10 0 6 -4 10 -10 10 -5 0
-10 -4 -10 -10z"/>
<path d="M2241 864 c0 -11 3 -14 6 -6 3 7 2 16 -1 19 -3 4 -6 -2 -5 -13z"/>
<path d="M2799 838 c-9 -33 -15 -185 -8 -210 11 -40 17 -24 21 59 3 48 1 89
-3 91 -5 2 -6 17 -2 33 3 16 3 29 -1 29 -3 0 -6 -1 -7 -2z"/>
<path d="M2301 794 c0 -11 3 -14 6 -6 3 7 2 16 -1 19 -3 4 -6 -2 -5 -13z"/>
<path d="M2496 783 c-6 -14 -5 -15 5 -6 7 7 10 15 7 18 -3 3 -9 -2 -12 -12z"/>
<path d="M3211 769 c5 -10 15 -21 22 -25 8 -6 8 -3 -1 9 -8 9 -11 20 -8 25 3
5 -1 9 -9 9 -10 0 -11 -5 -4 -18z"/>
<path d="M2120 737 c0 -10 8 -17 18 -17 9 0 13 4 7 8 -5 4 -13 11 -17 16 -5 5
-8 2 -8 -7z"/>
<path d="M3181 716 c7 -15 15 -23 17 -16 3 7 -3 19 -13 28 -15 16 -16 15 -4
-12z"/>
<path d="M2156 711 c-4 -6 -4 -17 0 -23 5 -9 2 -9 -9 1 -12 9 -17 10 -17 2 0
-6 7 -14 15 -17 8 -4 15 -12 15 -19 0 -7 7 -18 15 -25 12 -10 15 -10 15 1 0
28 -27 91 -34 80z"/>
<path d="M2342 660 c0 -14 2 -19 5 -12 2 6 2 18 0 25 -3 6 -5 1 -5 -13z"/>
<path d="M2990 640 c0 -5 7 -10 15 -10 8 0 15 5 15 10 0 6 -7 10 -15 10 -8 0
-15 -4 -15 -10z"/>
<path d="M2840 537 c0 -8 7 -20 15 -27 12 -10 15 -10 15 3 0 8 -7 20 -15 27
-12 10 -15 10 -15 -3z"/>
<path d="M2355 500 c-3 -5 -1 -10 4 -10 6 0 11 5 11 10 0 6 -2 10 -4 10 -3 0
-8 -4 -11 -10z"/>
<path d="M2704 465 c14 -13 26 -32 26 -42 1 -16 2 -16 10 -2 13 23 1 56 -23
63 -38 10 -41 7 -13 -19z"/>
<path d="M2831 463 c0 -25 1 -26 9 -8 12 27 12 35 0 35 -5 0 -10 -12 -9 -27z"/>
</g>
</svg>
